<svg id="Layer_1" data-name="Layer 1" xmlns="http://www.w3.org/2000/svg" viewBox="0 0 766.881 483.969">
  <g>
    <rect x="175" y="168.276" width="371.816" height="247.112" fill="#dee8f5"></rect>
    <rect id="sh" x="166.888" y="164.308" width="384.084" height="62.801" fill="#c1d8ed" opacity="0.55"></rect>
    <g id="stairs">
      <rect x="105.588" y="432.723" width="510.641" height="25.623" fill="#f3f5fd"></rect>
      <rect x="123.502" y="407.1" width="474.812" height="25.623" fill="#f3f5fd"></rect>
      <rect x="123.502" y="425.868" width="474.812" height="6.855" fill="#dee8f5"></rect>
      <rect x="105.588" y="451.491" width="510.641" height="6.855" fill="#dee8f5"></rect>
      <rect x="89.143" y="458.346" width="544.212" height="25.623" fill="#f3f5fd"></rect>
      <rect x="89.143" y="477.114" width="544.212" height="6.855" fill="#dee8f5"></rect>
    </g>
    <g id="pillars">
      <rect x="159.655" y="187.537" width="41.09" height="208.032" fill="#f3f5fd"></rect>
      <rect x="263.31" y="187.537" width="41.09" height="208.032" fill="#f3f5fd"></rect>
      <rect x="521.07" y="187.537" width="41.09" height="208.032" fill="#f3f5fd"></rect>
      <path d="M147.282,168.276h65.838a0,0,0,0,1,0,0v23.606a2.983,2.983,0,0,1-2.983,2.983H150.265a2.983,2.983,0,0,1-2.983-2.983V168.276A0,0,0,0,1,147.282,168.276Z" fill="#c1d8ed"></path>
      <path d="M250.936,168.276h65.838a0,0,0,0,1,0,0v23.606a2.983,2.983,0,0,1-2.983,2.983H253.919a2.983,2.983,0,0,1-2.983-2.983V168.276A0,0,0,0,1,250.936,168.276Z" fill="#c1d8ed"></path>
      <path d="M508.7,168.276h65.838a0,0,0,0,1,0,0v23.606a2.983,2.983,0,0,1-2.983,2.983H511.68a2.983,2.983,0,0,1-2.983-2.983V168.276a0,0,0,0,1,0,0Z" fill="#c1d8ed"></path>
      <path d="M150.265,388.448h59.871a2.983,2.983,0,0,1,2.983,2.983V407.1a0,0,0,0,1,0,0H147.282a0,0,0,0,1,0,0V391.431A2.983,2.983,0,0,1,150.265,388.448Z" fill="#c1d8ed"></path>
      <path d="M253.919,388.448h59.871a2.983,2.983,0,0,1,2.983,2.983V407.1a0,0,0,0,1,0,0H250.936a0,0,0,0,1,0,0V391.431A2.983,2.983,0,0,1,253.919,388.448Z" fill="#c1d8ed"></path>
      <path d="M511.68,388.448h59.871a2.983,2.983,0,0,1,2.983,2.983V407.1a0,0,0,0,1,0,0H508.7a0,0,0,0,1,0,0V391.431A2.983,2.983,0,0,1,511.68,388.448Z" fill="#c1d8ed"></path>
      <rect x="170.844" y="204.211" width="4.136" height="174.684" rx="2.068" fill="#c1d8ed"></rect>
      <rect x="185.421" y="204.211" width="4.136" height="174.684" rx="2.068" fill="#c1d8ed"></rect>
      <rect x="274.498" y="204.211" width="4.136" height="174.684" rx="2.068" fill="#c1d8ed"></rect>
      <rect x="289.076" y="204.211" width="4.136" height="174.684" rx="2.068" fill="#c1d8ed"></rect>
      <rect x="420.615" y="187.537" width="41.09" height="208.032" fill="#f3f5fd"></rect>
      <path d="M408.241,168.276h65.838a0,0,0,0,1,0,0v23.606a2.983,2.983,0,0,1-2.983,2.983H411.224a2.983,2.983,0,0,1-2.983-2.983V168.276A0,0,0,0,1,408.241,168.276Z" fill="#c1d8ed"></path>
      <path d="M411.224,388.448H471.1a2.983,2.983,0,0,1,2.983,2.983V407.1a0,0,0,0,1,0,0H408.241a0,0,0,0,1,0,0V391.431A2.983,2.983,0,0,1,411.224,388.448Z" fill="#c1d8ed"></path>
      <rect x="431.803" y="204.211" width="4.136" height="174.684" rx="2.068" fill="#c1d8ed"></rect>
      <rect x="446.38" y="204.211" width="4.136" height="174.684" rx="2.068" fill="#c1d8ed"></rect>
      <rect x="532.259" y="204.211" width="4.136" height="174.684" rx="2.068" fill="#c1d8ed"></rect>
      <rect x="546.836" y="204.211" width="4.136" height="174.684" rx="2.068" fill="#c1d8ed"></rect>
    </g>
    <path d="M592.5,159.014v15.131a3.069,3.069,0,0,1-3.068,3.069H131.434a3.069,3.069,0,0,1-3.069-3.069V159.664a4.382,4.382,0,0,1,1.917-3.623L358.44.759a4.382,4.382,0,0,1,4.93,0L590.579,155.391A4.382,4.382,0,0,1,592.5,159.014Z" fill="#dee8f5"></path>
    <path d="M531.347,151.677H190.469a1.18,1.18,0,0,1-.664-2.155l170.436-116a1.181,1.181,0,0,1,1.327,0l170.443,116A1.18,1.18,0,0,1,531.347,151.677Z" fill="#f3f5fd"></path>
  </g>
  <g>
    <g>
      <path d="M216.361,422.326H273.98a2.913,2.913,0,0,1,2.913,2.913v14.722a2.913,2.913,0,0,1-2.913,2.912H216.361Z" fill="#8ddbe0"></path>
      <rect x="114.244" y="422.326" width="30.544" height="20.548" fill="#FF5D76"></rect>
      <path d="M36.91,422.326h77.056v20.547H36.91A2.912,2.912,0,0,1,34,439.961V425.239A2.913,2.913,0,0,1,36.91,422.326Z" fill="#8ddbe0"></path>
      <path d="M216.361,422.326H273.98a2.913,2.913,0,0,1,2.913,2.913v14.722a2.913,2.913,0,0,1-2.913,2.912H216.361Z" fill="#0f1011" opacity="0.15"></path>
      <path d="M144.788,422.326h72.058a2.913,2.913,0,0,1,2.913,2.913v14.722a2.913,2.913,0,0,1-2.913,2.912H144.788Z" fill="#8ddbe0"></path>
    </g>
    <g>
      <path d="M182.363,442.873h57.619a2.913,2.913,0,0,1,2.913,2.913v14.722a2.913,2.913,0,0,1-2.913,2.913H182.363Z" fill="#8ddbe0"></path>
      <rect x="80.247" y="442.873" width="30.544" height="20.548" fill="#FF5D76"></rect>
      <path d="M2.913,442.873H79.969v20.548H2.913A2.913,2.913,0,0,1,0,460.508V445.786A2.913,2.913,0,0,1,2.913,442.873Z" fill="#8ddbe0"></path>
      <path d="M182.363,442.873h57.619a2.913,2.913,0,0,1,2.913,2.913v14.722a2.913,2.913,0,0,1-2.913,2.913H182.363Z" fill="#0f1011" opacity="0.15"></path>
      <path d="M110.79,442.873h72.058a2.913,2.913,0,0,1,2.913,2.913v14.722a2.913,2.913,0,0,1-2.913,2.913H110.79Z" fill="#8ddbe0"></path>
    </g>
    <g>
      <path d="M193.87,463.421h57.62a2.913,2.913,0,0,1,2.912,2.913v14.722a2.913,2.913,0,0,1-2.912,2.913H193.87Z" fill="#8ddbe0"></path>
      <path d="M193.87,463.421h57.62a2.913,2.913,0,0,1,2.912,2.913v14.722a2.913,2.913,0,0,1-2.912,2.913H193.87Z" fill="#0f1011" opacity="0.15"></path>
      <rect x="91.754" y="463.421" width="30.544" height="20.548" fill="#FF5D76"></rect>
      <path d="M14.42,463.421H91.476v20.548H14.42a2.913,2.913,0,0,1-2.913-2.913V466.334A2.913,2.913,0,0,1,14.42,463.421Z" fill="#8ddbe0"></path>
      <path d="M122.3,463.421h72.058a2.913,2.913,0,0,1,2.913,2.913v14.722a2.913,2.913,0,0,1-2.913,2.913H122.3Z" fill="#8ddbe0"></path>
    </g>
  </g>
  <g>
    <path d="M120.7,306.428a4.3,4.3,0,0,0-2.94-1.336H85.694a4.293,4.293,0,0,0-2.939,1.336,357.048,357.048,0,0,0-36.88,45.164c-13.362,19.776-11.224,38.216,5.613,55.319,13.362,13.63,31,15.5,50.241,15.5s36.879-1.87,50.241-15.5c16.837-17.1,18.975-35.543,5.612-55.319A379.424,379.424,0,0,0,120.7,306.428Z" fill="#FF5D76"></path>
    <path d="M148.763,265.006c-4.692-5.255-12.547-.625-20.326,4.913a11.8,11.8,0,0,1-16.184-2.417c-3.392-4.38-7.094-8.108-10.524-8.108-3.271,0-7,3.721-10.433,8.1a11.735,11.735,0,0,1-16.278,2.088c-7.532-5.68-15.145-10.493-19.789-5.106-12.776,18.2,24.586,45.187,28.06,48.127.8.535,36.345.535,36.88,0C123.643,309.927,162.7,280.958,148.763,265.006Z" fill="#FF5D76"></path>
    <path d="M125.246,313.377H78.212a4.009,4.009,0,1,1,0-8.018h47.034a4.111,4.111,0,0,1,4.009,4.009A3.936,3.936,0,0,1,125.246,313.377Z" fill="#262626"></path>
    <path d="M98.678,399.481v-7.924a28.31,28.31,0,0,1-7.33-1.941,21.63,21.63,0,0,1-6.616-4.081L89.8,377.69a26.563,26.563,0,0,0,5.745,3.447,14.278,14.278,0,0,0,5.587,1.149q3.328,0,4.873-1.347a5.178,5.178,0,0,0,1.545-4.12,4.566,4.566,0,0,0-1.545-3.487,20.454,20.454,0,0,0-3.883-2.734q-2.338-1.307-5.032-2.614a28.153,28.153,0,0,1-5.032-3.13,16.6,16.6,0,0,1-3.882-4.279,11.1,11.1,0,0,1-1.545-6.023,14.625,14.625,0,0,1,3.209-9.706,14.809,14.809,0,0,1,8.835-4.953v-8.162h7.686v8a17.454,17.454,0,0,1,6.656,2.3,24.626,24.626,0,0,1,5.151,4.2l-5.863,6.657a18.257,18.257,0,0,0-4.121-2.972,9.973,9.973,0,0,0-4.517-.991,6.9,6.9,0,0,0-4.358,1.189A4.652,4.652,0,0,0,97.806,354a4.052,4.052,0,0,0,1.545,3.209,20.113,20.113,0,0,0,3.883,2.5q2.337,1.188,5.032,2.457a26.5,26.5,0,0,1,5.031,3.09,15.939,15.939,0,0,1,3.884,4.4,12.221,12.221,0,0,1,1.545,6.38,15.74,15.74,0,0,1-3.091,9.785q-3.09,4.083-9.271,5.428v8.241Z" fill="#f1f1f1"></path>
  </g>
  <g>
    <path d="M592.885,345.609S570.845,329.269,563,335.7c-7.1,5.816,1.123,29.029,1.123,29.029S583.072,366.435,592.885,345.609Z" fill="#dee8f5"></path>
    <path d="M738.245,398.816c0,41.177-33.872,74.558-87.144,74.558s-96.457-33.381-96.457-74.558,43.185-74.558,96.457-74.558S738.245,357.639,738.245,398.816Z" fill="#c1d8ed"></path>
    <path d="M610.571,441.607h-6.214a5.5,5.5,0,0,1-1.58,0h-6.214a6.078,6.078,0,0,0-6.078,6.078v30.5a5.779,5.779,0,0,0,5.779,5.78h6.812c.166,0,.329-.011.491-.025.162.014.325.025.491.025h6.812a5.78,5.78,0,0,0,5.78-5.78v-30.5A6.079,6.079,0,0,0,610.571,441.607Z" fill="#c1d8ed"></path>
    <path d="M693.037,441.607h-6.214a5.5,5.5,0,0,1-1.58,0h-6.214a6.079,6.079,0,0,0-6.079,6.078v30.5a5.78,5.78,0,0,0,5.78,5.78h6.812c.166,0,.329-.011.491-.025.162.014.325.025.491.025h6.812a5.78,5.78,0,0,0,5.78-5.78v-30.5A6.079,6.079,0,0,0,693.037,441.607Z" fill="#c1d8ed"></path>
    <circle cx="572.384" cy="371.369" r="3.15" fill="#111314"></circle>
    <g id="tail">
      <path d="M747.623,411.464a12.429,12.429,0,0,1-2.2-.195,13.313,13.313,0,0,1-9.408-6.872,12.972,12.972,0,0,1-.028-11.639A16.678,16.678,0,0,1,740.229,387a49.663,49.663,0,0,0-13.556-1.172,3.57,3.57,0,0,1-.532-7.121c.647-.049,14.255-.992,23.909,4.532,7.421-.446,14.5,3.045,14.86,3.226a3.57,3.57,0,0,1-3.2,6.383,25.57,25.57,0,0,0-3.807-1.45,18.32,18.32,0,0,1,1.695,6.91,12.34,12.34,0,0,1-3.969,10.192A12.116,12.116,0,0,1,747.623,411.464Zm.732-20.793c-.3.074-.6.162-.883.263a8.529,8.529,0,0,0-5,4.812,5.85,5.85,0,0,0-.125,5.35,6.3,6.3,0,0,0,4.341,3.145,5.028,5.028,0,0,0,4.205-1.1,5.3,5.3,0,0,0,1.57-4.45,10.376,10.376,0,0,0-3.6-7.595Q748.618,390.879,748.355,390.671Z" fill="#c1d8ed"></path>
      <path d="M739.232,397.823a3.571,3.571,0,0,1-3.24-5.065,15.52,15.52,0,0,1,9.137-8.569c8.875-3.111,19.34,2.05,19.781,2.271a3.57,3.57,0,0,1-3.2,6.383c-2.266-1.124-9.257-3.666-14.237-1.909a8.529,8.529,0,0,0-5,4.812A3.572,3.572,0,0,1,739.232,397.823Z" fill="#dee8f5"></path>
    </g>
    <path d="M588.2,353.376a4.631,4.631,0,0,1-.623-5.929c4.193-6.162,13.8-18.811,20.413-16.223,6.053,2.367,7.5,17.531,7.853,24.366a4.3,4.3,0,0,1-3,4.45C607.985,361.36,598.119,362.361,588.2,353.376Z" fill="#dee8f5"></path>
    <polyline points="537.289 386.341 608.158 386.962 608.158 433.745 543.498 433.459" fill="#c1d8ed"></polyline>
    <ellipse cx="540.514" cy="409.9" rx="10.682" ry="23.87" transform="translate(-55.321 85.625) rotate(-8.618)" fill="#dee8f5"></ellipse>
    <rect x="623.486" y="330.554" width="54.31" height="6.877" rx="3.438" fill="#e9eff4"></rect>
    <path d="M677.5,335.385a3.44,3.44,0,0,1-3.145,2.046H626.923a3.429,3.429,0,0,1-3.141-2.049,3.311,3.311,0,0,1,.714-1.043,3.4,3.4,0,0,1,2.427-1.009h47.435A3.432,3.432,0,0,1,677.5,335.385Z" fill="#0f1011"></path>
  </g>
  <g>
    <g>
      <circle cx="654.586" cy="273.314" r="34.975" fill="#FF5D76"></circle>
      <g opacity="0.29">
        <circle cx="654.586" cy="273.314" r="22.673" fill="#fff"></circle>
      </g>
    </g>
    <path d="M647.165,281.412l2.115-3.279a7.7,7.7,0,0,0,4.7,1.939c1.869,0,2.691-.775,2.691-2.276,0-3.393-8.705-3.332-8.705-9.283,0-3.825,2.65-6.262,6.829-6.262a8.177,8.177,0,0,1,6.278,2.8l-2.426,2.778a5.1,5.1,0,0,0-3.592-1.664c-1.586,0-2.447.64-2.447,2.121,0,3.145,8.705,2.871,8.705,9.175,0,3.786-2.506,6.526-7.333,6.526A10.973,10.973,0,0,1,647.165,281.412Zm5.8-22.393h3.217v4.75h-3.217Zm0,22.986h3.217v5.211h-3.217Z" fill="#fff"></path>
  </g>
  <g>
    <g>
      <circle cx="677.797" cy="193.182" r="27.437" fill="#FF5D76"></circle>
      <g opacity="0.29">
        <circle cx="677.797" cy="193.182" r="17.786" fill="#fff"></circle>
      </g>
    </g>
    <path d="M671.975,199.536l1.659-2.573a6.046,6.046,0,0,0,3.689,1.521c1.466,0,2.111-.608,2.111-1.785,0-2.662-6.829-2.614-6.829-7.283,0-3,2.079-4.912,5.357-4.912a6.415,6.415,0,0,1,4.925,2.194l-1.9,2.18a4,4,0,0,0-2.818-1.3c-1.244,0-1.92.5-1.92,1.664,0,2.467,6.83,2.251,6.83,7.2,0,2.97-1.966,5.119-5.753,5.119A8.609,8.609,0,0,1,671.975,199.536Zm4.55-17.568h2.524v3.726h-2.524Zm0,18.032h2.524v4.089h-2.524Z" fill="#fff"></path>
  </g>
</svg>