<svg id="Layer_1" data-name="Layer 1" xmlns="http://www.w3.org/2000/svg" viewBox="0 0 590.4 494.607">
  <g>
    <rect x="438.711" y="442.327" width="31.294" height="52.064" fill="#f3f5fd"></rect>
    <rect x="376.036" y="399.463" width="31.294" height="94.928" fill="#f3f5fd"></rect>
    <rect x="313.36" y="353.654" width="31.302" height="140.736" fill="#f3f5fd"></rect>
    <rect x="250.693" y="309.565" width="31.295" height="184.826" fill="#f3f5fd"></rect>
    <rect x="188.018" y="262.511" width="31.302" height="231.88" fill="#f3f5fd"></rect>
    <rect x="125.35" y="218.511" width="31.294" height="275.88" fill="#f3f5fd"></rect>
    <rect x="62.675" y="173.396" width="31.295" height="320.994" fill="#f3f5fd"></rect>
    <rect y="131.112" width="31.302" height="363.279" fill="#f3f5fd"></rect>
  </g>
  <g>
    <polygon points="549.602 441.641 530.442 468.431 507.432 451.961 0.002 88.901 0.002 48.411 526.032 424.771 549.602 441.641" fill="#fd5d76"></polygon>
    <polygon points="554.188 383.594 590.4 494.607 478.407 494.391 554.188 383.594" fill="#fd5d76"></polygon>
  </g>
  <g>
    <g>
      <circle cx="426.742" cy="159.593" r="73.938" fill="#FF5D76"></circle>
      <g opacity="0.29">
        <circle cx="426.742" cy="159.593" r="47.931" fill="#fff"></circle>
      </g>
    </g>
    <path d="M411.06,176.713l4.47-6.932c3.544,2.715,6.644,4.1,9.94,4.1,3.952,0,5.69-1.64,5.69-4.813,0-7.172-18.4-7.043-18.4-19.623,0-8.088,5.6-13.239,14.437-13.239a17.284,17.284,0,0,1,13.272,5.914l-5.128,5.873c-2.534-2.3-4.683-3.517-7.594-3.517-3.354,0-5.174,1.353-5.174,4.489,0,6.649,18.4,6.068,18.4,19.394,0,8-5.3,13.8-15.5,13.8A23.188,23.188,0,0,1,411.06,176.713Zm12.261-47.34h6.807v10.04h-6.807Zm0,48.593h6.807v11.017h-6.807Z" fill="#fff"></path>
  </g>
  <g>
    <g>
      <path d="M135.029,39.356c.3,3.669-3.524,7.085-4.155,10.543-.652,3.578,1.686,8.122.161,11.332-1.547,3.256-6.563,4.312-8.882,7.041s-2.554,7.849-5.518,9.9c-2.922,2.023-7.784.447-11.209,1.667-3.311,1.179-6.067,5.5-9.736,5.8s-7.085-3.525-10.543-4.155c-3.578-.652-8.122,1.686-11.332.16-3.256-1.547-4.313-6.563-7.041-8.882s-7.849-2.554-9.9-5.518c-2.022-2.922-.447-7.784-1.667-11.209-1.179-3.311-5.5-6.066-5.8-9.736s3.525-7.085,4.155-10.543c.652-3.578-1.686-8.122-.161-11.332,1.548-3.256,6.563-4.312,8.883-7.041s2.554-7.849,5.518-9.9c2.922-2.023,7.783-.447,11.209-1.667,3.311-1.179,6.066-5.5,9.736-5.8S95.832,3.541,99.29,4.171c3.577.652,8.122-1.686,11.332-.16,3.255,1.547,4.312,6.563,7.041,8.882s7.849,2.554,9.9,5.518c2.022,2.922.447,7.784,1.667,11.209C130.409,32.931,134.732,35.686,135.029,39.356Z" fill="#0f1011"></path>
      <path d="M76.018,82.5s7.736-4.093,6.029-25.151L98.026,54.4s-1.812,18.877,6.265,24.878Z" fill="#E98862"></path>
      <g opacity="0.2">
        <path d="M101.021,75.328,87.757,65.163l10.425-.1A28.741,28.741,0,0,0,101.021,75.328Z"></path>
      </g>
      <path d="M72.989,49.175c1.1,6.39,4.581,12.442,10.215,14.511a40.512,40.512,0,0,0,19.355,2.633c17.491-1.419,14.067-41.19,5.77-48.922s-32.67-2.862-35.646,10.056C71.144,34.133,71.942,43.093,72.989,49.175Z" fill="#E98862"></path>
      <g>
        <circle cx="98.013" cy="42.827" r="1.449" fill="#0f1011"></circle>
        <circle cx="109.446" cy="41.9" r="1.449" fill="#0f1011"></circle>
        <path d="M111.959,38.815h-.009l-3.837-.052a.681.681,0,0,1-.672-.69.67.67,0,0,1,.689-.671l3.838.051a.681.681,0,0,1-.009,1.362Z" fill="#0f1011"></path>
        <path d="M94.889,40.2a.681.681,0,0,1-.157-1.343l3.785-.907a.681.681,0,1,1,.316,1.324l-3.785.907A.665.665,0,0,1,94.889,40.2Z" fill="#0f1011"></path>
        <path d="M107.758,57.765s-5.177-1.456-9.093-.8c0,0,.622-3.468,4.853-3.1S107.758,57.765,107.758,57.765Z" fill="#fff"></path>
      </g>
      <path d="M84.772,32.634A125.389,125.389,0,0,1,79.906,77.04S67.713,56.015,65.827,38.51C64.059,22.1,76.159,12.422,84.33,10.6c31.052-6.914,33.287,15.768,33.287,15.768C111.96,38.134,81.411,38.082,81.411,38.082" fill="#0f1011"></path>
      <path d="M90.691,49.066a6.143,6.143,0,1,1-12.245.993,6.042,6.042,0,0,1,5.626-6.619C88.451,43.3,90.417,45.685,90.691,49.066Z" fill="#E98862"></path>
      <g opacity="0.2">
        <path d="M104.439,50.87a.5.5,0,0,1-.147-.978l2.948-.9L105.183,44.4a.5.5,0,1,1,.913-.409l2.289,5.11a.5.5,0,0,1-.31.682l-3.49,1.068A.493.493,0,0,1,104.439,50.87Z"></path>
      </g>
    </g>
    <g>
      <path d="M141.384,483.571l-20.853-2.479c.938-7.893,2-17.374,2.072-18.928,0,.1,0,.181,0,.244h21C143.6,463.038,143.6,464.954,141.384,483.571Z" fill="#E98862"></path>
      <path d="M57.708,486.082l-21-.068s.071-21.685.071-23.606h21C57.779,464.335,57.708,486.082,57.708,486.082Z" fill="#E98862"></path>
      <path d="M112.136,476.941l37-.631c-1.738-44.031-1.844-90.218-2.386-134.357-7.221-47.573-11.023-99.816-19.935-147.049l-77.126-3.793s-2.2,31.127-2.96,43.552C43.017,294.944,35.815,406.61,31.3,475.748l36.868,3.115C74.807,411.077,85.087,312.307,91.41,241.1c7.261,34.669,12.2,70.568,18.514,104.94C111.186,389.063,112.255,434.042,112.136,476.941Z" fill="#262626"></path>
      <path d="M83.236,494.2a4.108,4.108,0,0,0,4.077-4.427h0a4.11,4.11,0,0,0-2.659-3.529l-24.443-8.187a3.461,3.461,0,0,0-2.872.32,19.112,19.112,0,0,1-11.468,3.4,17.035,17.035,0,0,1-8.82-3.222,1.546,1.546,0,0,0-2.527,1.2v11.952a2.678,2.678,0,0,0,2.688,2.678Z" fill="#c1d8ed"></path>
      <path d="M166.97,494.2a4.107,4.107,0,0,0,4.076-4.427h0a4.108,4.108,0,0,0-2.658-3.529l-24.443-8.187a3.461,3.461,0,0,0-2.872.32,19.112,19.112,0,0,1-11.468,3.4,17.031,17.031,0,0,1-8.82-3.222,1.547,1.547,0,0,0-2.528,1.2v11.952a2.678,2.678,0,0,0,2.689,2.678Z" fill="#c1d8ed"></path>
    </g>
    <g>
      <g>
        <path d="M181.921,82.525s.15-12.01,8.735-11.385c5.417.394,31.151-.8,31.534,1.543.948,5.8-22.591,7.218-24.728,12.623Z" fill="#E98862"></path>
        <path d="M187.617,71.525s11.949-3.9,14.885-3.2c2.6.618-2.819,4.85-2.819,4.85Z" fill="#E98862"></path>
      </g>
      <g>
        <path d="M131.628,192.528c-4.19,9.63-81.328,13.63-82.428-3.31-.7-10.78,8.721-20.19,8.721-41.2S38.548,105.248,54.3,89.5c4.571-4.57,7.39-12.59,17.01-12.6.72,5.61,34.78,5.63,35.04.13,1.3.02,2.31.04,2.94.07,33.18,1.43,15.474,39.19,15.155,66.93C124.053,176.488,135.948,182.608,131.628,192.528Z" fill="#fff"></path>
        <path d="M106.348,77.028c-.26,5.5-3.25,13.59-12.48,14.2-12.3.81-21.84-8.72-22.56-14.33h.03C83.448,76.9,99.288,76.918,106.348,77.028Z" fill="#E98862"></path>
        <path d="M180.912,75.509l-21.406,39.969L126.544,83.323c-2.975-3.776-7.662-6.131-14.831-6.445-.545-.023-6.168-.2-6.5.134-2.01,2.01-3.119,37.423-2.119,57.1,1.093,21.3-.03,47.9.985,63.193a7.269,7.269,0,0,0,8.333,6.712c10.782-1.647,19.19-4.456,20.416-7.273,4.32-9.92-5.649-20.262-5.259-52.722.1-8.736,1.583-18.5,2.617-27.812l24.652,24.048a10.5,10.5,0,0,0,16.588-2.559l28-52.279Z" fill="#414D55"></path>
        <path d="M149.272,151.4l-55.733,1.7L81.6,128.108c-1.926-19.146-4.479-35.462-5.65-44.021-1.5-7.927-.7-7.365-4.462-7.368-9.619.01-17.686,3.136-22.256,7.706-15.75,15.75,3.579,42.59,3.579,63.59s-9.5,30.42-8.8,41.2c.431,6.733,3.872,15.251,29.824,17.076a8.218,8.218,0,0,0,8.734-7.2,224.173,224.173,0,0,0,1.454-24.35,10.857,10.857,0,0,0,2.743.369c.112,0,.223,0,.334-.006l62.838-1.916Z" fill="#414D55"></path>
        <path d="M68.826,100.635l2.48-8.13-4.78-3.13,3.93-12.63a58.231,58.231,0,0,1,7.21.15c2.36,7.89,4.9,41.77,5.82,55Z" fill="#414D55"></path>
        <path d="M110.226,92.505l3.7,12.13-10.69,32.58s-2.13-49.22.7-60.25a25.534,25.534,0,0,1,3.008-.225c2.054-.029,4.166.111,4.166.111l3.9,12.524Z" fill="#414D55"></path>
        <g opacity="0.24">
          <path d="M68.826,100.635l2.48-8.13-4.78-3.13,3.93-12.63a58.231,58.231,0,0,1,7.21.15c2.36,7.89,4.9,41.77,5.82,55Z" fill="#fff"></path>
        </g>
        <g opacity="0.24">
          <path d="M110.226,92.505l3.7,12.13-10.69,32.58s-2.13-49.22.7-60.25a25.534,25.534,0,0,1,3.008-.225c2.054-.029,4.166.111,4.166.111l3.9,12.524Z" fill="#fff"></path>
        </g>
        <g>
          <g>
            <path d="M144.789,99.413l-12.142,50.971a5.4,5.4,0,0,0,5.251,6.65h71.584a5.4,5.4,0,0,0,5.206-3.969l13.992-50.971a5.4,5.4,0,0,0-5.206-6.828H150.041A5.4,5.4,0,0,0,144.789,99.413Z" fill="#9ebcea"></path>
            <rect x="103.992" y="150.69" width="92.863" height="6.344" rx="3.172" fill="#9ebcea"></rect>
          </g>
          <circle cx="183.594" cy="125.646" r="8.466" fill="#fff"></circle>
        </g>
        <path d="M167.29,163.724c-4.49,2.77-11.44,4.08-17.5,4.56l-.34-11.04c2.85-.08,7.23-.38,11.52-.21,1.938-1.58,3.054-2.05,5.044-4.04,2.118-2.118,7.676-3.39,8.726,0S171.23,161.284,167.29,163.724Z" fill="#E98862"></path>
      </g>
    </g>
  </g>
  <g>
    <g>
      <rect x="231.559" y="452.524" width="93.165" height="21.041" rx="6.894" fill="#FF5D76"></rect>
      <rect x="219.202" y="431.483" width="93.165" height="21.041" rx="6.894" fill="#FF5D76"></rect>
      <rect x="231.559" y="410.44" width="93.165" height="21.041" rx="6.894" fill="#FF5D76"></rect>
      <rect x="225.381" y="389.781" width="93.165" height="21.041" rx="6.894" fill="#FF5D76"></rect>
      <rect x="213.023" y="368.739" width="93.165" height="21.041" rx="6.894" fill="#FF5D76"></rect>
    </g>
    <rect x="224.121" y="473.565" width="93.165" height="21.041" rx="6.894" fill="#FF5D76"></rect>
  </g>
  <g>
    <rect x="348.19" y="473.565" width="93.165" height="21.041" rx="6.894" fill="#FF5D76"></rect>
    <rect x="343.832" y="452.523" width="93.165" height="21.041" rx="6.894" fill="#FF5D76"></rect>
    <rect x="348.19" y="431.482" width="93.165" height="21.041" rx="6.894" fill="#FF5D76"></rect>
  </g>
</svg>