<svg xmlns="http://www.w3.org/2000/svg" viewBox="0 0 996.667 563.797">
  <g id="Layer_2" data-name="Layer 2">
    <g>
      <rect x="403.377" y="354.02" width="8.548" height="208.398" fill="#dee8f5"></rect>
      <rect x="480.309" y="354.02" width="8.548" height="208.398" fill="#dee8f5"></rect>
      <rect x="815.676" y="354.02" width="8.548" height="208.398" fill="#c1d8ed"></rect>
      <rect x="747.134" y="351.409" width="77.09" height="196.76" fill="#c1d8ed"></rect>
      <rect x="731.743" y="533.919" width="8.548" height="28.499" fill="#c1d8ed"></rect>
      <rect x="391.559" y="345.413" width="444.482" height="11.753" fill="#dee8f5"></rect>
      <rect x="742.86" y="354.02" width="8.548" height="208.398" fill="#dee8f5"></rect>
      <rect x="658.927" y="354.02" width="8.548" height="208.398" fill="#dee8f5"></rect>
      <rect x="663.201" y="357.182" width="83.933" height="190.986" fill="#dee8f5"></rect>
    </g>
    <g>
      <g>
        <polygon points="414.491 501.616 414.491 513.549 414.491 562.418 351.912 562.418 351.912 513.549 351.912 501.616 414.491 501.616" fill="#c1d8ed"></polygon>
        <rect x="370.897" y="513.549" width="62.579" height="48.869" fill="#dee8f5"></rect>
        <rect x="370.897" y="513.549" width="62.579" height="3.663" fill="#c1d8ed"></rect>
        <rect x="370.897" y="501.616" width="62.579" height="11.933" transform="translate(804.373 1015.165) rotate(-180)" fill="#dee8f5"></rect>
        <rect x="393.809" y="523.364" width="16.755" height="7.338" rx="1.585" transform="translate(804.373 1054.066) rotate(-180)" fill="#fff"></rect>
      </g>
      <g>
        <polygon points="346.775 517.212 346.775 526.084 346.775 562.418 300.248 562.418 300.248 526.084 300.248 517.212 346.775 517.212" fill="#c1d8ed"></polygon>
        <rect x="315.498" y="526.084" width="46.527" height="36.333" fill="#dee8f5"></rect>
        <rect x="315.498" y="526.084" width="46.527" height="2.724" fill="#c1d8ed"></rect>
        <rect x="315.498" y="517.212" width="46.527" height="8.872" transform="translate(677.522 1043.297) rotate(-180)" fill="#dee8f5"></rect>
        <rect x="332.533" y="533.382" width="12.457" height="5.456" rx="1.178" transform="translate(677.522 1072.219) rotate(-180)" fill="#fff"></rect>
      </g>
    </g>
    <g>
      <rect x="52.768" y="134.222" width="48.585" height="418.802" fill="#c1d8ed"></rect>
      <g>
        <rect x="183.784" y="537.325" width="15.666" height="25.093" transform="translate(383.235 1099.743) rotate(-180)" fill="#c1d8ed"></rect>
        <rect x="68.747" y="537.325" width="15.666" height="25.093" transform="translate(153.16 1099.743) rotate(-180)" fill="#c1d8ed"></rect>
      </g>
      <rect x="101.353" y="134.222" width="159.23" height="418.802" transform="translate(361.936 687.245) rotate(-180)" fill="#dee8f5"></rect>
      <g>
        <rect x="226.349" y="537.325" width="15.666" height="25.093" transform="translate(468.363 1099.743) rotate(-180)" fill="#dee8f5"></rect>
        <rect x="128.92" y="537.325" width="15.666" height="25.093" transform="translate(273.505 1099.743) rotate(-180)" fill="#dee8f5"></rect>
      </g>
      <rect x="108.531" y="348.773" width="144.875" height="197.148" transform="translate(361.936 894.694) rotate(-180)" fill="#f3f5fd" opacity="0.53"></rect>
      <rect x="108.531" y="141.549" width="144.875" height="61.827" transform="translate(361.936 344.925) rotate(-180)" fill="#fff" opacity="0.53"></rect>
      <rect x="108.531" y="210.423" width="144.875" height="61.827" transform="translate(361.936 482.673) rotate(-180)" fill="#fff" opacity="0.53"></rect>
      <rect x="108.531" y="279.297" width="144.875" height="61.827" transform="translate(361.936 620.421) rotate(-180)" fill="#fff" opacity="0.53"></rect>
      <rect x="177.757" y="346.716" width="6.423" height="201.478" transform="translate(361.936 894.909) rotate(-180)" fill="#dee8f5"></rect>
      <g>
        <circle cx="199.97" cy="443.407" r="6.536" fill="#fff"></circle>
        <circle cx="161.966" cy="443.407" r="6.536" fill="#fff"></circle>
      </g>
      <g>
        <polygon points="226.295 222.786 226.295 232.494 226.295 272.25 175.267 272.25 175.267 232.494 175.267 222.786 226.295 222.786" fill="#c1d8ed"></polygon>
        <rect x="190.748" y="232.494" width="51.029" height="39.756" fill="#dee8f5"></rect>
        <rect x="190.748" y="232.494" width="51.029" height="2.98" fill="#c1d8ed"></rect>
        <rect x="190.748" y="222.786" width="51.029" height="9.708" transform="translate(432.525 455.281) rotate(-180)" fill="#dee8f5"></rect>
        <rect x="209.431" y="240.479" width="13.662" height="5.969" rx="1.291" transform="translate(432.525 486.927) rotate(-180)" fill="#fff"></rect>
      </g>
      <g>
        <polygon points="169.064 229.518 169.064 237.904 169.064 272.25 124.979 272.25 124.979 237.904 124.979 229.518 169.064 229.518" fill="#c1d8ed"></polygon>
        <rect x="139.428" y="237.904" width="44.085" height="34.346" fill="#dee8f5"></rect>
        <rect x="139.428" y="237.904" width="44.085" height="2.575" fill="#c1d8ed"></rect>
        <rect x="139.428" y="229.518" width="44.085" height="8.387" transform="translate(322.941 467.422) rotate(-180)" fill="#dee8f5"></rect>
        <rect x="155.569" y="244.803" width="11.803" height="5.157" rx="1.115" transform="translate(322.941 494.762) rotate(-180)" fill="#fff"></rect>
      </g>
      <g>
        <rect x="239.115" y="163.016" width="6.852" height="36.334" transform="translate(48.194 -50.943) rotate(13.302)" fill="#fff"></rect>
        <g>
          <rect x="235.181" y="160.05" width="3.764" height="31.559" transform="translate(-27.963 45.922) rotate(-10.452)" fill="#c1d8ed"></rect>
          <rect x="232.644" y="160.281" width="3.764" height="3.485" transform="translate(-26.155 46.7) rotate(-10.775)" fill="#dee8f5"></rect>
        </g>
        <rect x="226.176" y="182.385" width="32.729" height="2.21" transform="translate(-17.077 341.898) rotate(-68.498)" fill="#c1d8ed"></rect>
        <rect x="232.055" y="181.183" width="18.083" height="23.111" fill="#c1d8ed"></rect>
      </g>
      <g>
        <rect x="207.147" y="163.171" width="15.344" height="40.676" fill="#c1d8ed"></rect>
        <rect x="200.473" y="157.573" width="8.21" height="46.273" fill="#dee8f5"></rect>
        <rect x="187.699" y="160.185" width="12.774" height="43.661" fill="#fff"></rect>
        <rect x="149.247" y="160.185" width="7.463" height="43.661" fill="#dee8f5"></rect>
        <rect x="164.648" y="164.85" width="15.673" height="37.317" transform="translate(-62.933 94.037) rotate(-25.964)" fill="#dee8f5"></rect>
        <rect x="133.962" y="163.417" width="15.344" height="40.676" fill="#c1d8ed"></rect>
        <rect x="127.288" y="157.819" width="8.21" height="46.273" fill="#dee8f5"></rect>
        <rect x="114.514" y="160.432" width="12.774" height="43.661" fill="#c1d8ed"></rect>
      </g>
      <g>
        <rect x="200.787" y="297.334" width="7.463" height="43.661" transform="translate(103.293 -46.14) rotate(17.164)" fill="#dee8f5"></rect>
        <rect x="121.06" y="300.448" width="15.344" height="40.676" fill="#c1d8ed"></rect>
        <rect x="134.867" y="294.85" width="8.21" height="46.273" fill="#fff"></rect>
        <rect x="143.077" y="297.463" width="12.774" height="43.661" fill="#dee8f5"></rect>
        <rect x="186.84" y="297.463" width="7.463" height="43.661" fill="#dee8f5"></rect>
        <rect x="163.23" y="302.259" width="15.673" height="37.317" transform="translate(157.767 -42.503) rotate(25.964)" fill="#fff"></rect>
      </g>
      <g>
        <path d="M218.3,319.382a2.414,2.414,0,0,0,3.284.939,2.522,2.522,0,0,1,2.385.428,5.666,5.666,0,0,1,2.141,3.32H238.83a17.309,17.309,0,0,1,.295-2.283,10.105,10.105,0,0,1,2.777-5.441,2.285,2.285,0,0,1,1.324-.712,2.415,2.415,0,1,0,2.126-4.337c-2.047-1.018-4.628-.444-6.726,1.5a12.288,12.288,0,0,0-1.741,2,21.351,21.351,0,0,1,.9-3.627,8.418,8.418,0,0,1,2.573-3.826,2.419,2.419,0,0,0-2.927-3.851,13.027,13.027,0,0,0-4.2,6.039c-.086.24-.169.483-.243.731-1.5-3.748-3.045-6.919-6.153-8.746a2.418,2.418,0,0,0-2.451,4.169c1.9,1.116,3.033,3.634,4.313,6.867a18.153,18.153,0,0,0-4.993-4.035,2.417,2.417,0,1,0-2.314,4.244,13.325,13.325,0,0,1,3.85,3.19,7,7,0,0,0-6,.145A2.42,2.42,0,0,0,218.3,319.382Z" fill="#8ddbe0"></path>
        <rect x="221.113" y="324.069" width="22.471" height="6.534" fill="#dee8f5"></rect>
        <path d="M221.115,330.6v7.163a3.36,3.36,0,0,0,3.359,3.359h15.755a3.36,3.36,0,0,0,3.359-3.359V330.6Z" fill="#c1d8ed"></path>
      </g>
    </g>
    <g>
      <g>
        <path d="M909.152,506.072c-8.146-2.338-14.277-9.626-16.713-17.742s-1.578-16.924.8-25.057c1.942-6.637,4.884-13.053,5.61-19.93,2.414-22.9-19.8-46.3-9.345-66.815,3.38-6.635,9.921-11.821,11.088-19.175.966-6.082-2.031-11.992-3.52-17.967-2.05-8.224-1.011-17.555,4.324-24.14s15.417-9.462,22.768-5.245c9.615,5.516,10.449,19.132,7.978,29.938s-7.051,21.923-4.032,32.588c2.878,10.166,12.243,17.821,13.923,28.252,1.4,8.671-2.837,17.126-4.7,25.71-2.923,13.491.052,27.476.18,41.279S933.749,497.052,909.152,506.072Z" fill="#8ddbe0"></path>
        <path d="M896.582,507.383A28.653,28.653,0,0,1,877.2,485.89c-1.594-8.214.363-17.44-4.133-24.5-6.091-9.562-12.338-10.643-19.921-19.071-11.661-12.959-12.071-18.7-11.3-42.7.325-10.15-13.689-21.6-8.754-31.356,4.349-8.592,17.567-8.636,25.063-2.59s10.789,15.737,14.055,24.8,7.384,18.644,15.664,23.561c4.966,2.949,11.466,4.312,14.209,9.395,2.2,4.083,1.093,9.068.208,13.623-2.227,11.45-1.669,25.417,7.94,32.03,4.335,2.984,10.013,4.011,13.576,7.883,3.524,3.829,4.092,9.5,3.854,14.7a65.447,65.447,0,0,1-8.049,28.509" fill="#dee8f5"></path>
        <path d="M908.17,515.357c-8.651-9.885-9.875-25.544-2.864-36.652,5.883-9.321,16.846-15.74,19.148-26.518,2.05-9.6-3.636-19.521-1.934-29.188,1.851-10.513,11.563-17.412,19.278-24.789a26.93,26.93,0,0,0,5.123-6.186c3.393-6.107,2.446-13.6,3.6-20.488,2.207-13.2,13.078-24.9,26.278-27.082,11.577-1.913,19.87,4.737,19.87,16.985,0,14.51-10.869,20.727-16.415,27.3a51.029,51.029,0,0,0-11.89,34c.391,13.851,6.289,28.6-.012,40.94-4.624,9.057-14.5,13.886-22.261,20.458a56.59,56.59,0,0,0-19.708,40.346" fill="#f3f5fd"></path>
      </g>
      <rect x="875.696" y="492.607" width="69.811" height="69.811" fill="#FFB507"></rect>
      <rect x="875.696" y="506.22" width="69.811" height="13.626" fill="#fff" opacity="0.42"></rect>
    </g>
    <g>
      <circle cx="690.916" cy="69.442" r="28.921" fill="#c1d8ed"></circle>
      <circle cx="685.021" cy="69.442" r="28.921" fill="#dee8f5"></circle>
      <circle cx="685.021" cy="69.442" r="24.66" fill="#f3f5fd"></circle>
      <polyline points="685.021 52.318 685.021 70.539 696.92 63.85" fill="none" stroke="#dee8f5" stroke-linecap="round" stroke-linejoin="round" stroke-width="2.358"></polyline>
    </g>
    <g>
      <g>
        <rect x="660.732" y="216.789" width="136.432" height="108.292" rx="9.335" fill="#f3f5fd"></rect>
        <rect x="713.345" y="307.739" width="31.205" height="35.323" fill="#f3f5fd"></rect>
        <rect x="698.995" y="336.5" width="63.136" height="8.679" rx="4.339" fill="#f3f5fd"></rect>
      </g>
      <g>
        <rect x="667.223" y="216.789" width="136.432" height="108.292" rx="9.335" fill="#dee8f5"></rect>
        <rect x="719.836" y="307.739" width="31.205" height="35.323" fill="#dee8f5"></rect>
        <rect x="705.486" y="336.5" width="63.136" height="8.679" rx="4.339" fill="#dee8f5"></rect>
      </g>
    </g>
  </g>
  <g id="Layer_3" data-name="Layer 3">
    <g>
      <path d="M510.77,107.176a22.663,22.663,0,0,0-13.993,0,15.553,15.553,0,0,0-10.611,14.674,11.127,11.127,0,0,0,5.8,9.075c2.935,1.5,7.348,1.816,9.916-.589,1.959-1.833,1.859-4.98.6-7.165-2.019-3.491-6.427-4.91-10.254-4.424a16.457,16.457,0,0,0-10.987,6.633A16.251,16.251,0,0,0,478.63,131a9.768,9.768,0,0,0,.083,5.869,1.777,1.777,0,0,0,2.12,1.2,1.734,1.734,0,0,0,1.2-2.12,4.292,4.292,0,0,1-.355-1.547,7.855,7.855,0,0,1,.154-1.963,13.451,13.451,0,0,1,1.65-4.224,12.912,12.912,0,0,1,6.931-5.518c2.763-.924,6.025-.915,8.243,1.179a4.312,4.312,0,0,1,.994,1.318c.032.056.132.308.014.011.054.135.1.272.141.411.026.088.049.176.07.265.028.12.07.672.044.167.007.138.126.951,0,1.029-.038.023.1-.49.024-.188-.014.052-.015.108-.03.159a3.525,3.525,0,0,1-.123.432,1.932,1.932,0,0,1-.948.79c.252-.119-.261.09-.257.089-.107.032-.215.059-.323.085a4.7,4.7,0,0,1-.966.149,8.753,8.753,0,0,1-1.683-.044,8.054,8.054,0,0,1-1.739-.52,7.605,7.605,0,0,1-4.268-6.438,11.354,11.354,0,0,1,1.021-4.467,14.827,14.827,0,0,1,.871-1.655,11.016,11.016,0,0,1,.956-1.356,13.055,13.055,0,0,1,1.151-1.2c.2-.183.4-.359.615-.53.408-.332-.265.186.159-.121.129-.093.258-.186.39-.275a13.834,13.834,0,0,1,1.418-.84c.253-.131.51-.253.771-.37.055-.024.3-.125.015-.007.167-.068.334-.133.5-.2a18.439,18.439,0,0,1,3.47-.869c.495-.079-.359.032.138-.018.149-.014.3-.033.446-.047.3-.028.592-.049.889-.065q.873-.045,1.748-.022.843.021,1.683.1c.122.012.956.117.482.05q.389.054.775.12a20.745,20.745,0,0,1,2.747.667c2.118.677,3.025-2.65.916-3.324Z" fill="#FFB507"></path>
      <path d="M181.546,43.94c4.4-1.581,8.988,1.615,11.054,5.529,2.037,3.858,1.562,9.369-2.423,11.837-1.693,1.049-4.065,1.4-5.542.054-1.54-1.4-1.446-3.153.076-4.557a6.981,6.981,0,0,1,1.16-.842c.241-.145.487-.283.739-.409.092-.046.186-.09.279-.135.256-.12-.372.135.092-.038a10.066,10.066,0,0,1,1.139-.353c.184-.044.369-.084.555-.118.107-.02.215-.038.323-.055-.357.056.171-.016.2-.018a12.183,12.183,0,0,1,2.631.043c.291.037-.234-.037.057.011.115.02.23.039.344.06.2.038.4.08.6.126a13.62,13.62,0,0,1,1.439.422c.134.047.54.2.537.2-.144-.06.123.056.12.054.108.049.215.1.322.151a12.741,12.741,0,0,1,1.315.738,9.015,9.015,0,0,1,1.952,1.663,8.536,8.536,0,0,1,1.372,2.093,3.111,3.111,0,0,1,.179.434c.1.291.2.587.282.885a13.656,13.656,0,0,1,.423,1.96,13.124,13.124,0,0,1-5.849,12.6,6.094,6.094,0,0,1-5.546.468,5.42,5.42,0,0,1-.712-.412c-.272-.182.127.127-.03-.018-.04-.038-.082-.075-.121-.115s-.1-.11-.147-.165c.45.5.052.093.08.08a1.842,1.842,0,0,1-.106-.193c.1.15.076.3.031.05-.012-.061-.108-.561-.077-.278.029.265.006-.168,0-.254s.012-.168.014-.252c0,.066-.087.374-.007.068.053-.2.091-.405.157-.606.032-.1.209-.5.072-.213.091-.193.189-.382.3-.566s.239-.386.37-.571c.014-.019.192-.25.057-.08.077-.1.159-.191.241-.285a10.362,10.362,0,0,1,2.472-2.031c.284-.171.574-.336.87-.486.1-.05.564-.248.185-.1a9.9,9.9,0,0,1,1.112-.365,7.667,7.667,0,0,1,2.353-.321,12.883,12.883,0,0,1,1.347.05,2.072,2.072,0,0,1,.449.06c.273.05.544.106.813.176a6.682,6.682,0,0,1,2.481,1.138,7.949,7.949,0,0,1,2.735,4.338,11.86,11.86,0,0,1,.123,5.443,11.294,11.294,0,0,1-2.272,4.861,9.062,9.062,0,0,1-2.014,1.808c-1.851,1.208-.125,4.194,1.741,2.977a14.556,14.556,0,0,0,6.224-13.053,13.225,13.225,0,0,0-2.475-7.1,10.291,10.291,0,0,0-6.62-3.945,12.925,12.925,0,0,0-13.039,5.53c-1.089,1.726-1.63,4.087-.517,5.939,1.413,2.35,4.825,3.013,7.338,2.705a11.83,11.83,0,0,0,7.573-4.618A16.725,16.725,0,0,0,204.252,67a15.556,15.556,0,0,0-1.679-8.908,12.765,12.765,0,0,0-5.112-4.925c-4.086-2.2-9.372-2.618-13.425-.127-2.652,1.629-4.729,4.5-3.734,7.738a7.1,7.1,0,0,0,6.925,4.912c6.559-.111,10.7-6.975,9.93-13-.8-6.255-5.91-11.858-12.282-12.566a9.524,9.524,0,0,0-4.245.493,1.768,1.768,0,0,0-1.2,2.121,1.739,1.739,0,0,0,2.12,1.2Z" fill="#FFB507"></path>
      <path d="M259.655,153.327a22.679,22.679,0,0,0,13.421-6.063,15.291,15.291,0,0,0,4.238-7.559c.816-3.554.491-7.772-1.543-10.865a11.119,11.119,0,0,0-8.413-4.787c-3.2-.136-7.279,1.281-8.649,4.43-1.1,2.517.26,5.506,2.432,6.971,3.444,2.323,7.939,1.787,11.348-.307a16.394,16.394,0,0,0,7.2-10.626c.744-3.829.3-8.581-2.6-11.448a1.736,1.736,0,0,0-2.422.285,1.766,1.766,0,0,0,.285,2.422c-.259-.256.122.155.139.176.073.092.142.188.209.285a2.982,2.982,0,0,1,.328.562,9.118,9.118,0,0,1,.639,1.892,13.386,13.386,0,0,1,.181,4.212,12.977,12.977,0,0,1-4.091,7.989c-2.144,1.951-5.073,3.271-7.947,2.361a4.119,4.119,0,0,1-1.574-.84c-.088-.073-.174-.15-.257-.229.266.254-.085-.1-.115-.138-.062-.077-.123-.157-.181-.238s-.358-.615-.136-.176c-.15-.3-.215-.675-.377-.954.009.016.049.4.016.051a2.024,2.024,0,0,1-.02-.54c.083-.57-.03.056.068-.25.014-.041.188-.405.085-.221a4.169,4.169,0,0,1,.28-.383c.04-.053.311-.342.106-.142a5.907,5.907,0,0,1,1.414-.959,6.5,6.5,0,0,1,3.375-.77c-.244-.009.134.016.188.022.15.018.3.031.449.052a7.958,7.958,0,0,1,.892.18c-.2-.054.089.027.106.033.177.056.352.121.525.189a10.291,10.291,0,0,1,.947.44,8.1,8.1,0,0,1,2.788,2.5c1.55,2.365,1.515,5.681.914,8.3-.073.317-.117.474-.168.635q-.135.426-.3.841a13.594,13.594,0,0,1-.743,1.567c-.269.486.176-.266-.118.2-.06.1-.121.19-.183.284-.155.233-.317.462-.486.685a14.351,14.351,0,0,1-1.19,1.382c-.076.079-.154.157-.232.234.257-.252-.154.137-.206.184q-.336.3-.687.581a17.978,17.978,0,0,1-1.582,1.132c-.249.159-.5.307-.755.458-.074.044-.384.217-.082.051-.139.076-.28.15-.421.222q-.832.427-1.7.782a25.028,25.028,0,0,1-3.137,1.034c-.094.025-.407.094-.033.01-.131.029-.262.059-.394.087q-.382.081-.766.149-.711.123-1.428.194a1.725,1.725,0,0,0,.36,3.43Z" fill="#FFB507"></path>
      <rect x="228.806" y="11.418" width="6.503" height="15.4" transform="translate(26.526 128.539) rotate(-32.74)" fill="#FFB507"></rect>
      <rect x="363.525" y="158.338" width="17.035" height="6.503" transform="translate(31.883 382.537) rotate(-56.482)" fill="#FFB507"></rect>
      <rect x="546.725" y="182.774" width="6.503" height="16.837" transform="translate(-29.793 137.381) rotate(-13.867)" fill="#FFB507"></rect>
      <rect x="75.262" y="123.241" width="18.84" height="6.502" transform="translate(-66.595 109.566) rotate(-49.815)" fill="#FFB507"></rect>
      <path d="M468.037,33.057c-4.4-1.581-8.987,1.616-11.054,5.53-2.036,3.858-1.561,9.368,2.423,11.836,1.694,1.049,4.066,1.4,5.543.054,1.54-1.4,1.446-3.152-.076-4.557a7.075,7.075,0,0,0-1.16-.841c-.241-.145-.488-.283-.739-.41-.092-.046-.186-.09-.279-.134-.256-.121.372.134-.092-.038a10.13,10.13,0,0,0-1.139-.353c-.184-.045-.369-.084-.555-.119-.108-.02-.215-.037-.323-.054.357.056-.172-.016-.2-.019a12.182,12.182,0,0,0-2.631.044c-.291.036.233-.038-.058.011-.115.019-.229.038-.344.06q-.3.056-.6.126a13.615,13.615,0,0,0-1.439.421c-.134.048-.54.2-.538.2.144-.061-.122.055-.119.054-.108.049-.215.1-.322.151a13.046,13.046,0,0,0-1.316.737,9.013,9.013,0,0,0-1.951,1.664,8.5,8.5,0,0,0-1.372,2.092,3.136,3.136,0,0,0-.179.435c-.105.291-.2.587-.283.884a13.685,13.685,0,0,0-.423,1.96,13.124,13.124,0,0,0,5.85,12.6,6.089,6.089,0,0,0,5.545.468,5.259,5.259,0,0,0,.713-.412c.272-.182-.127.128.029-.018.041-.038.083-.075.122-.115s.1-.109.147-.164c-.45.5-.053.092-.08.08a2.092,2.092,0,0,0,.105-.193c-.1.15-.075.3-.03.049.011-.061.108-.56.077-.278-.03.265-.007-.168,0-.254s-.012-.167-.015-.252c0,.066.088.375.008.069-.053-.2-.092-.406-.157-.606-.033-.1-.209-.5-.072-.213-.091-.193-.189-.382-.3-.566s-.239-.386-.37-.572c-.014-.019-.192-.25-.057-.079-.077-.1-.159-.192-.241-.285a10.324,10.324,0,0,0-2.473-2.031c-.284-.171-.573-.336-.869-.486-.1-.051-.564-.248-.185-.1a9.9,9.9,0,0,0-1.112-.366,7.67,7.67,0,0,0-2.353-.32,12.883,12.883,0,0,0-1.347.049,2.081,2.081,0,0,0-.45.06c-.273.05-.544.106-.812.176A6.7,6.7,0,0,0,448,60.174a7.957,7.957,0,0,0-2.734,4.338,11.86,11.86,0,0,0-.124,5.443,11.3,11.3,0,0,0,2.273,4.861,9.058,9.058,0,0,0,2.013,1.808c1.852,1.208.126,4.2-1.74,2.977a14.555,14.555,0,0,1-6.225-13.052,13.229,13.229,0,0,1,2.476-7.1,10.287,10.287,0,0,1,6.62-3.944A12.925,12.925,0,0,1,463.6,61.034c1.089,1.726,1.63,4.087.516,5.939-1.413,2.35-4.825,3.014-7.337,2.7a11.824,11.824,0,0,1-7.573-4.617,16.725,16.725,0,0,1-3.874-8.942,15.551,15.551,0,0,1,1.678-8.909,12.776,12.776,0,0,1,5.112-4.924c4.086-2.2,9.373-2.619,13.426-.128,2.652,1.63,4.729,4.5,3.734,7.738a7.1,7.1,0,0,1-6.926,4.912c-6.559-.111-10.695-6.975-9.929-13,.795-6.254,5.909-11.857,12.282-12.565a9.541,9.541,0,0,1,4.245.492,1.769,1.769,0,0,1,1.2,2.121,1.738,1.738,0,0,1-2.121,1.2Z" fill="#FFB507"></path>
      <path d="M349.113,109.474a22.677,22.677,0,0,1-13.421-6.062,15.3,15.3,0,0,1-4.238-7.56c-.816-3.553-.491-7.772,1.543-10.865a11.119,11.119,0,0,1,8.414-4.787c3.195-.136,7.278,1.281,8.648,4.43,1.1,2.517-.26,5.506-2.432,6.971-3.444,2.324-7.939,1.788-11.348-.306a16.4,16.4,0,0,1-7.2-10.627c-.744-3.829-.3-8.581,2.6-11.448a1.737,1.737,0,0,1,2.422.285,1.766,1.766,0,0,1-.285,2.422c.259-.256-.122.155-.138.176-.073.092-.143.188-.21.285a2.982,2.982,0,0,0-.328.562,9.118,9.118,0,0,0-.639,1.892,13.388,13.388,0,0,0-.181,4.212,12.975,12.975,0,0,0,4.091,7.989c2.144,1.952,5.073,3.272,7.947,2.361a4.119,4.119,0,0,0,1.574-.84c.088-.073.174-.15.257-.229-.266.254.085-.1.115-.138.062-.077.123-.157.181-.238s.358-.615.136-.176c.15-.3.215-.674.377-.953-.009.016-.049.4-.016.05a2.023,2.023,0,0,0,.02-.54c-.083-.57.03.056-.068-.249-.014-.042-.188-.4-.085-.222a4.169,4.169,0,0,0-.28-.383c-.04-.053-.31-.341-.106-.142a5.888,5.888,0,0,0-1.414-.959,6.5,6.5,0,0,0-3.375-.77c.244-.009-.134.016-.188.022-.15.018-.3.031-.449.052a7.958,7.958,0,0,0-.892.18c.2-.054-.088.027-.106.033-.177.057-.352.121-.525.19a10.026,10.026,0,0,0-.947.439,8.119,8.119,0,0,0-2.788,2.5c-1.55,2.365-1.515,5.681-.914,8.3.073.317.117.474.168.635q.135.426.3.841a13.516,13.516,0,0,0,.743,1.567c.269.486-.176-.266.118.2.06.1.121.191.183.284q.233.351.486.685a14.231,14.231,0,0,0,1.19,1.382c.076.079.154.157.232.234-.257-.252.154.137.207.184q.334.3.686.581a17.978,17.978,0,0,0,1.582,1.132c.249.159.5.308.755.459.074.043.384.216.082.05.139.077.28.15.421.222q.832.427,1.7.782a25.081,25.081,0,0,0,3.137,1.034c.094.025.407.094.033.01.131.03.262.059.394.087q.382.081.766.149.711.123,1.428.194a1.725,1.725,0,0,1-.36,3.43Z" fill="#FFB507"></path>
      <rect x="409.826" y="4.984" width="15.4" height="6.503" transform="translate(184.792 354.978) rotate(-57.26)" fill="#FFB507"></rect>
      <rect x="198.38" y="173.039" width="6.503" height="17.035" transform="translate(-66.727 141.531) rotate(-33.518)" fill="#FFB507"></rect>
      <rect x="561.65" y="106.19" width="6.502" height="18.84" transform="translate(58.74 391.797) rotate(-40.185)" fill="#FFB507"></rect>
      <rect x="176.119" y="226.354" width="16.837" height="6.503" transform="translate(-108.698 201.582) rotate(-45.752)" fill="#FFB507"></rect>
      <rect x="439.401" y="206.457" width="6.503" height="15.4" transform="translate(-45.5 273.418) rotate(-32.74)" fill="#FFB507"></rect>
    </g>
    <g>
      <path d="M748.681,43.94c4.4-1.581,8.988,1.615,11.054,5.529,2.036,3.858,1.561,9.369-2.423,11.837-1.694,1.049-4.065,1.4-5.543.054-1.54-1.4-1.446-3.153.077-4.557a6.973,6.973,0,0,1,1.159-.842c.242-.145.488-.283.739-.409.093-.046.186-.09.28-.135.255-.12-.372.135.092-.038a10,10,0,0,1,1.139-.353c.183-.044.369-.084.555-.118.107-.02.215-.038.322-.055-.357.056.172-.016.2-.018a12.18,12.18,0,0,1,2.631.043c.292.037-.233-.037.058.011l.344.06q.3.057.6.126a13.551,13.551,0,0,1,1.439.422c.135.047.54.2.538.2-.144-.06.123.056.12.054.107.049.215.1.321.151a12.756,12.756,0,0,1,1.316.738,9.011,9.011,0,0,1,1.951,1.663A8.479,8.479,0,0,1,767.02,60.4a3.111,3.111,0,0,1,.179.434c.105.291.2.587.283.885a13.656,13.656,0,0,1,.423,1.96,13.124,13.124,0,0,1-5.85,12.6,6.092,6.092,0,0,1-5.545.468,5.431,5.431,0,0,1-.713-.412c-.272-.182.128.127-.029-.018-.041-.038-.083-.075-.122-.115s-.1-.11-.147-.165c.45.5.053.093.081.08a1.674,1.674,0,0,1-.106-.193c.1.15.075.3.03.05-.011-.061-.108-.561-.076-.278.029.265.006-.168,0-.254s.011-.168.014-.252c0,.066-.087.374-.008.068.053-.2.092-.405.157-.606.033-.1.21-.5.073-.213.091-.193.189-.382.3-.566s.239-.386.371-.571c.013-.019.192-.25.056-.08.078-.1.159-.191.241-.285a10.367,10.367,0,0,1,2.473-2.031c.284-.171.573-.336.869-.486.1-.05.564-.248.186-.1a9.815,9.815,0,0,1,1.111-.365,7.676,7.676,0,0,1,2.353-.321,12.912,12.912,0,0,1,1.348.05,2.081,2.081,0,0,1,.449.06c.273.05.544.106.813.176a6.682,6.682,0,0,1,2.481,1.138A7.948,7.948,0,0,1,771.45,75.4a11.846,11.846,0,0,1,.124,5.443A11.284,11.284,0,0,1,769.3,85.7a9.058,9.058,0,0,1-2.013,1.808c-1.852,1.208-.126,4.194,1.74,2.977a14.555,14.555,0,0,0,6.225-13.053,13.233,13.233,0,0,0-2.475-7.1,10.293,10.293,0,0,0-6.621-3.945,12.924,12.924,0,0,0-13.038,5.53c-1.09,1.726-1.63,4.087-.517,5.939,1.413,2.35,4.825,3.013,7.338,2.705a11.825,11.825,0,0,0,7.572-4.618A16.718,16.718,0,0,0,771.386,67a15.548,15.548,0,0,0-1.678-8.908,12.778,12.778,0,0,0-5.112-4.925c-4.086-2.2-9.372-2.618-13.426-.127-2.652,1.629-4.728,4.5-3.734,7.738a7.1,7.1,0,0,0,6.926,4.912c6.559-.111,10.7-6.975,9.929-13-.8-6.255-5.909-11.858-12.282-12.566a9.527,9.527,0,0,0-4.245.493,1.769,1.769,0,0,0-1.2,2.121,1.74,1.74,0,0,0,2.121,1.2Z" fill="#FFB507"></path>
      <path d="M826.79,153.327a22.681,22.681,0,0,0,13.421-6.063,15.3,15.3,0,0,0,4.238-7.559c.816-3.554.491-7.772-1.544-10.865a11.115,11.115,0,0,0-8.413-4.787c-3.195-.136-7.278,1.281-8.649,4.43-1.1,2.517.261,5.506,2.432,6.971,3.445,2.323,7.94,1.787,11.349-.307a16.389,16.389,0,0,0,7.2-10.626c.745-3.829.3-8.581-2.6-11.448a1.736,1.736,0,0,0-2.422.285,1.766,1.766,0,0,0,.285,2.422c-.258-.256.123.155.139.176.073.092.143.188.21.285a3.04,3.04,0,0,1,.328.562,9.237,9.237,0,0,1,.639,1.892,13.416,13.416,0,0,1,.18,4.212,12.967,12.967,0,0,1-4.091,7.989c-2.143,1.951-5.072,3.271-7.947,2.361a4.126,4.126,0,0,1-1.574-.84c-.088-.073-.174-.15-.257-.229.267.254-.085-.1-.114-.138-.063-.077-.123-.157-.181-.238s-.359-.615-.137-.176c-.149-.3-.214-.675-.377-.954.01.016.05.4.016.051a2.111,2.111,0,0,1-.02-.54c.084-.57-.03.056.069-.25.013-.041.188-.405.084-.221a4.18,4.18,0,0,1,.281-.383c.039-.053.31-.342.106-.142a5.9,5.9,0,0,1,1.413-.959,6.5,6.5,0,0,1,3.375-.77c-.243-.009.135.016.189.022.15.018.3.031.448.052a7.913,7.913,0,0,1,.892.18c-.2-.054.089.027.107.033.177.056.352.121.525.189a10.273,10.273,0,0,1,.946.44,8.081,8.081,0,0,1,2.788,2.5c1.551,2.365,1.516,5.681.914,8.3-.073.317-.116.474-.168.635-.09.284-.189.564-.3.841a13.43,13.43,0,0,1-.743,1.567c-.268.486.176-.266-.118.2-.06.1-.121.19-.183.284-.154.233-.316.462-.485.685a14.492,14.492,0,0,1-1.19,1.382c-.077.079-.154.157-.233.234.258-.252-.154.137-.206.184q-.334.3-.686.581a17.993,17.993,0,0,1-1.583,1.132c-.248.159-.5.307-.755.458-.073.044-.384.217-.081.051-.139.076-.28.15-.421.222q-.834.427-1.7.782a25.042,25.042,0,0,1-3.138,1.034c-.093.025-.407.094-.033.01-.131.029-.262.059-.393.087q-.382.081-.767.149-.709.123-1.427.194a1.725,1.725,0,0,0,.36,3.43Z" fill="#FFB507"></path>
      <rect x="795.94" y="11.418" width="6.503" height="15.4" transform="translate(116.623 435.258) rotate(-32.74)" fill="#FFB507"></rect>
      <rect x="930.66" y="158.338" width="17.035" height="6.503" transform="translate(285.847 855.364) rotate(-56.482)" fill="#FFB507"></rect>
      <rect x="592.371" y="57.337" width="15.073" height="6.502" transform="translate(221.1 529.698) rotate(-56.846)" fill="#FFB507"></rect>
      <rect x="642.397" y="123.241" width="18.84" height="6.502" transform="translate(134.589 542.835) rotate(-49.815)" fill="#FFB507"></rect>
      <path d="M916.247,109.474a22.68,22.68,0,0,1-13.421-6.062,15.306,15.306,0,0,1-4.238-7.56c-.816-3.553-.491-7.772,1.544-10.865a11.115,11.115,0,0,1,8.413-4.787c3.2-.136,7.278,1.281,8.649,4.43,1.1,2.517-.261,5.506-2.432,6.971-3.445,2.324-7.939,1.788-11.348-.306a16.389,16.389,0,0,1-7.2-10.627c-.745-3.829-.3-8.581,2.6-11.448a1.737,1.737,0,0,1,2.422.285,1.766,1.766,0,0,1-.285,2.422c.258-.256-.122.155-.139.176-.073.092-.143.188-.21.285a3.04,3.04,0,0,0-.328.562,9.237,9.237,0,0,0-.639,1.892,13.417,13.417,0,0,0-.18,4.212,12.969,12.969,0,0,0,4.091,7.989c2.144,1.952,5.072,3.272,7.947,2.361a4.126,4.126,0,0,0,1.574-.84c.088-.073.174-.15.257-.229-.267.254.085-.1.114-.138.063-.077.123-.157.181-.238s.359-.615.137-.176c.149-.3.214-.674.377-.953-.009.016-.049.4-.016.05a2.109,2.109,0,0,0,.02-.54c-.084-.57.03.056-.069-.249-.013-.042-.188-.4-.084-.222a4,4,0,0,0-.281-.383c-.039-.053-.31-.341-.106-.142a5.9,5.9,0,0,0-1.413-.959,6.5,6.5,0,0,0-3.375-.77c.243-.009-.134.016-.189.022-.149.018-.3.031-.448.052a7.958,7.958,0,0,0-.892.18c.2-.054-.089.027-.107.033-.177.057-.352.121-.525.19a10.009,10.009,0,0,0-.946.439,8.1,8.1,0,0,0-2.788,2.5c-1.55,2.365-1.516,5.681-.914,8.3.073.317.116.474.168.635q.135.426.3.841a13.516,13.516,0,0,0,.743,1.567c.269.486-.176-.266.118.2.06.1.121.191.183.284q.232.351.485.685a14.512,14.512,0,0,0,1.19,1.382c.077.079.154.157.233.234-.258-.252.154.137.206.184q.336.3.686.581a18.143,18.143,0,0,0,1.583,1.132c.248.159.5.308.755.459.074.043.384.216.081.05.139.077.28.15.421.222q.834.427,1.7.782a25.1,25.1,0,0,0,3.138,1.034c.093.025.407.094.033.01.131.03.262.059.394.087.254.054.51.1.766.149q.71.123,1.427.194a1.725,1.725,0,0,1-.36,3.43Z" fill="#FFB507"></path>
      <rect x="765.515" y="173.039" width="6.503" height="17.035" transform="translate(27.581 454.702) rotate(-33.518)" fill="#FFB507"></rect>
      <rect x="743.254" y="226.354" width="16.837" height="6.503" transform="translate(62.706 607.832) rotate(-45.752)" fill="#FFB507"></rect>
    </g>
  </g>
  <g id="Layer_1" data-name="Layer 1">
    <g>
      <g>
        <path d="M741.006,108.952s-9.253,26.635-14.379,40.436a4.467,4.467,0,0,0,3.915,6.014l26.549,1.653a4.472,4.472,0,0,0,4.722-3.973l4.139-37.623Z" fill="#0f1011"></path>
        <path d="M777.939,171.782s-7.467-4.566-4.454-25.477L757.72,142.37s.635,18.953-7.8,24.44Z" fill="#E98862"></path>
        <g opacity="0.15">
          <path d="M753.43,163.072,767.3,153.75,756.9,153A28.735,28.735,0,0,1,753.43,163.072Z"></path>
        </g>
        <path d="M783.033,138.711c-1.5,6.308-5.345,12.134-11.1,13.847a40.485,40.485,0,0,1-19.481,1.426c-17.369-2.5-11.481-41.984-2.72-49.185s32.785-.827,34.953,12.25C785.809,123.813,784.455,132.711,783.033,138.711Z" fill="#E98862"></path>
        <g>
          <circle cx="758.451" cy="130.821" r="1.449" fill="#0f1011"></circle>
          <circle cx="747.098" cy="129.185" r="1.449" fill="#0f1011"></circle>
          <path d="M748.633,126.137a.681.681,0,0,0,.058-1.361l-3.835-.186h-.008a.681.681,0,0,0-.058,1.361l3.835.186Z" fill="#0f1011"></path>
          <path d="M761.749,128.393a.681.681,0,0,0,.225-1.332l-3.722-1.14a.681.681,0,1,0-.4,1.3l3.722,1.141A.7.7,0,0,0,761.749,128.393Z" fill="#0f1011"></path>
          <path d="M757.083,142.17s-5.373.235-9.037-1.3c0,0-.186,3.517,4.018,4.123S757.083,142.17,757.083,142.17Z" fill="#fff"></path>
        </g>
        <g opacity="0.15">
          <path d="M751.538,138.449a.5.5,0,0,0,.207-.967l-2.886-1.084,2.339-4.456a.5.5,0,1,0-.885-.464l-2.5,4.767a.69.69,0,0,0,.368.966l3.214,1.208A.536.536,0,0,0,751.538,138.449Z"></path>
        </g>
        <path d="M739.893,112.145s3.843-20.514,36.652-13.375c8.179,1.78,19.481,8.956,20.062,30.205.263,9.747,3.035,19.094,5.224,25.038a4.471,4.471,0,0,1-4.465,6.02l-23.286-1.442a4.463,4.463,0,0,1-4.186-4.725c0-.065.009-.131.016-.2.414-3.953.964-10.655,1.377-20.925-.846-5.929,2.635-9.855-2.129-8.8C751.463,127.846,741.178,112.56,739.893,112.145Z" fill="#0f1011"></path>
        <path d="M765.371,137.5a6.143,6.143,0,1,0,12.16,1.751,6.041,6.041,0,0,0-5-6.926c-.067-.011-.135-.021-.2-.029C767.966,131.885,765.855,134.144,765.371,137.5Z" fill="#E98862"></path>
      </g>
      <g>
        <path d="M880.416,403.538l-4.16-20.584c-.063.013-.144.029-.24.053,1.51-.381,10.592-3.3,18.14-5.783l6.567,19.947C882.911,403.034,881.033,403.413,880.416,403.538Z" fill="#E98862"></path>
        <path d="M914.728,420.769a4.107,4.107,0,0,1-3.323,5.017h0a4.108,4.108,0,0,1-4.063-1.737l-13.8-21.773a3.457,3.457,0,0,1-.378-2.865,19.1,19.1,0,0,0,.558-11.948,17.039,17.039,0,0,0-5.24-7.793,1.547,1.547,0,0,1,.562-2.742l11.6-2.86a2.678,2.678,0,0,1,3.244,1.97Z" fill="#c1d8ed"></path>
        <path d="M725.662,547.487c-7.436-17.21-7.983-19.046-8.163-19.65l20.127-5.994c-.018-.062-.042-.14-.074-.233.515,1.468,4.235,10.252,7.388,17.549Z" fill="#E98862"></path>
        <path d="M703.415,563.553a4.109,4.109,0,0,1-5.3-2.86h0a4.108,4.108,0,0,1,1.366-4.2L719.933,540.8a3.459,3.459,0,0,1,2.819-.633,19.113,19.113,0,0,0,11.951-.516,17.027,17.027,0,0,0,7.291-5.918,1.547,1.547,0,0,1,2.781.314l3.89,11.3a2.678,2.678,0,0,1-1.671,3.407Z" fill="#c1d8ed"></path>
        <path d="M681.237,413.474c1.031-22.766,22.11-126.352,24.343-137.523l75.638,3.424s25.075,97.519,26.094,100.236L880,374.461l7.453,36.242L797.56,425.86a21.033,21.033,0,0,1-24.219-11.866s-28.581-84.019-29.158-85.568l-23.522,77.953L747.215,526.19l-35.331,10.99S680.821,422.682,681.237,413.474Z" fill="#262626"></path>
      </g>
      <g>
        <path d="M618.635,192.37l-3.657,11.264s-15.187,2.014-23.764-10.46c-2.842-4.134,1.781-7.422,3.363-6.707,5.23,2.362,10.069,5.218,14.993,4.958-1.6-1.578-3.653-3.865-2.967-4.592C608.409,184.923,618.635,192.37,618.635,192.37Z" fill="#E98862"></path>
        <g>
          <polyline points="617.79 175.706 600.233 195.264 582.675 175.706" fill="#c1d8ed"></polyline>
          <polyline points="608.032 184.164 600.324 192.864 592.354 184.05" fill="#f3f5fd"></polyline>
          <rect x="599.517" y="192.864" width="1.431" height="24.487" fill="#c1d8ed"></rect>
          <rect x="594.801" y="217.079" width="10.862" height="1.339" fill="#c1d8ed"></rect>
        </g>
        <path d="M743,182.428l-55.525,32.2a10.9,10.9,0,0,1-6.707,1.4l-69.779-7.978,2.477-21.662,66.194,7.567,49.729-29.693Z" fill="#010316"></path>
        <path d="M884.956,153.22l9.693,6.805s13.264-9.751,12.623-24.876c-.213-5.013-5.884-4.862-6.719-3.34-2.761,5.031-4.828,12.457-8.919,15.208.328-2.222.6-5.285-.389-5.453C888.654,141.122,884.956,153.22,884.956,153.22Z" fill="#E98862"></path>
        <path d="M788.778,284.19c-3.989,16.5-84.419-1.549-86.9-11.75-2.561-10.52,7.129-15.04,12.31-47.09,4.44-27.38-3.451-67.09,29.469-62.81.62.08,1.62.23,2.91.44-.679,5.47,32.871,11.28,34.551,5.88,9.48,1.65,16.75,5.92,20.469,11.19,12.82,18.22-10.83,41.35-14.43,62.04S791.309,273.69,788.778,284.19Z" fill="#010316"></path>
        <path d="M781.119,168.86c-1.68,5.4-12.711,13.14-24.68,10.24-8.991-2.18-10.55-10.65-9.871-16.12,6.971,1.1,22.59,3.79,34.52,5.87A.038.038,0,0,1,781.119,168.86Z" fill="#E98862"></path>
        <path d="M789.365,196.818l4.372-22.773,51,17.658,41.348-45.386L902.2,161l-45.637,50.891a15.01,15.01,0,0,1-16.463,4.026Z" fill="#010316"></path>
      </g>
    </g>
    <g>
      <g>
        <path d="M419.906,168.758s7.181-5,2.924-25.7l15.5-4.87s.5,18.957,9.245,23.931Z" fill="#E98862"></path>
        <g opacity="0.15">
          <path d="M443.851,158.6l-14.4-8.476,10.335-1.366A28.735,28.735,0,0,0,443.851,158.6Z"></path>
        </g>
        <path d="M412.846,136.05c1.869,6.208,6.06,11.792,11.9,13.16,6.936,1.624,11.875,1.19,19.531.259,10.449-1.271,8.778-12.126,7.735-23.142-1.046-11.06-3.362-22.779-7.958-26.118-9.176-6.666-32.776,1.133-34.159,14.317C409.184,121.344,411.066,130.141,412.846,136.05Z" fill="#E98862"></path>
        <path d="M455.457,94.188c-.638-5.244-8.209-13.041-24.177.924l-.016.013a49.851,49.851,0,0,0-13.251,3.1c-7.672,3.35-16.843,11.239-12.313,27.11,5.057,17.713,13.041,21.634,17.04,23.4,1.018.449,1.193-.039,1.394-1.134a81.041,81.041,0,0,0,.767-12.15,65.8,65.8,0,0,0-.555-11.921c-.213-1.753-.981-8.144,7.709-9.273,4.888-.635,3.083-.218,8.3-.853.744-.09,1.4-.2,2-.331l.006,0C460.388,110.881,456.1,99.432,455.457,94.188Z" fill="#0f1011"></path>
        <g>
          <circle cx="436.912" cy="126.705" r="1.449" fill="#0f1011"></circle>
          <circle cx="448.147" cy="124.394" r="1.449" fill="#0f1011"></circle>
          <path d="M446.366,121.446a.68.68,0,0,1-.072-1.357l3.816-.416a.681.681,0,0,1,.147,1.354l-3.817.415A.6.6,0,0,1,446.366,121.446Z" fill="#0f1011"></path>
          <path d="M433.409,124.481a.68.68,0,0,1-.238-1.318l3.646-1.361a.681.681,0,0,1,.477,1.275l-3.647,1.361A.688.688,0,0,1,433.409,124.481Z" fill="#0f1011"></path>
        </g>
        <path d="M429.858,131.135a6.143,6.143,0,0,1-12.034,2.475,6.041,6.041,0,0,1,4.779-7.254C426.932,125.685,429.174,127.812,429.858,131.135Z" fill="#E98862"></path>
        <g opacity="0.15">
          <path d="M444.268,133.906a.5.5,0,0,1-.264-.953l2.816-1.254-2.6-4.308a.5.5,0,0,1,.856-.517l2.894,4.793a.5.5,0,0,1-.225.715l-3.333,1.485A.469.469,0,0,1,444.268,133.906Z"></path>
        </g>
        <path d="M438.956,137.952s5.377-.086,8.941-1.839c0,0,.4,3.5-3.764,4.356S438.956,137.952,438.956,137.952Z" fill="#fff"></path>
      </g>
      <g>
        <path d="M317,399.473c-.617-.125-2.5-.5-20.307-6.368l6.567-19.947c7.548,2.485,16.631,5.4,18.14,5.783-.1-.024-.177-.04-.24-.052Z" fill="#E98862"></path>
        <path d="M282.69,416.7a4.107,4.107,0,0,0,3.323,5.017h0a4.108,4.108,0,0,0,4.063-1.736l13.8-21.773a3.458,3.458,0,0,0,.378-2.865,19.107,19.107,0,0,1-.558-11.949,17.039,17.039,0,0,1,5.24-7.793,1.546,1.546,0,0,0-.562-2.741L296.768,370a2.678,2.678,0,0,0-3.244,1.97Z" fill="#c1d8ed"></path>
        <path d="M502.638,553.892l-20.76-3.165c1.2-7.858,2.567-17.3,2.693-18.85-.009.1-.011.181-.012.244l20.988.693C505.526,533.443,505.463,535.357,502.638,553.892Z" fill="#E98862"></path>
        <path d="M528.233,563.786a4.107,4.107,0,0,0,4.4-4.109h0a4.1,4.1,0,0,0-2.387-3.718l-23.761-9.994a3.459,3.459,0,0,0-2.888.1A19.111,19.111,0,0,1,491.9,548.6a17.031,17.031,0,0,1-8.555-3.874,1.547,1.547,0,0,0-2.61,1.009l-.895,11.919a2.678,2.678,0,0,0,2.481,2.871Z" fill="#c1d8ed"></path>
        <path d="M516.181,409.409c-1.031-22.767-22.11-126.353-24.343-137.524L416.2,275.309s-25.075,97.519-26.094,100.236l-72.683-5.15-7.453,36.242L399.858,421.8a21.035,21.035,0,0,0,24.219-11.866s28.581-84.02,29.158-85.569l23.522,77.954-.371,136.447,36.963,1.665S516.6,418.616,516.181,409.409Z" fill="#262626"></path>
      </g>
      <g>
        <path d="M546.262,181.77l8.675,8.061s14.249-5.63,15.672-20.7c.472-5-5.166-5.618-6.2-4.223-3.42,4.607-6.258,9.457-10.686,11.626.628-2.156,1.31-5.154.358-5.455C551.572,170.287,546.262,181.77,546.262,181.77Z" fill="#E98862"></path>
        <path d="M455.958,178.992l17.921-12.42,32.938,47.521L546.589,175.1l15.265,15.57-49,48.043a10.9,10.9,0,0,1-16.593-1.575Z" fill="#010316"></path>
        <path d="M353.389,130.833l-11.829-.58s-4.482-15.841,5.311-27.385c3.246-3.826,7.629-.225,7.353,1.489-.909,5.665-3.837,12.8-2.3,17.48,1.1-1.956,2.774-4.538,3.655-4.066C357.9,119.013,353.389,130.833,353.389,130.833Z" fill="#E98862"></path>
        <path d="M495.539,268.377c-2.48,10.2-82.91,28.25-86.89,11.74-2.54-10.5,5.21-21.4,1.61-42.09s-27.25-43.83-14.43-62.04c3.72-5.28,10.99-9.55,20.47-11.2,1.67,5.4,35.23-.4,34.55-5.87,1.29-.21,2.29-.36,2.91-.44,32.92-4.28,25.04,35.43,29.47,62.8C488.409,253.337,498.1,257.857,495.539,268.377Z" fill="#010316"></path>
        <path d="M440.989,175.037c-11.99,2.9-23.02-4.85-24.69-10.25a.037.037,0,0,1,.03-.01c11.94-2.07,27.55-4.76,34.52-5.86C451.529,164.387,449.959,172.857,440.989,175.037Z" fill="#E98862"></path>
        <path d="M350.958,201.787a10.9,10.9,0,0,1-10.869-10.056L335,126.385l21.738-1.693,4.157,53.355,45.032-10,3.814,21.468-56.874,12.1A10.97,10.97,0,0,1,350.958,201.787Z" fill="#010316"></path>
        <g>
          <polyline points="573.659 155.689 556.102 175.247 538.544 155.689" fill="#c1d8ed"></polyline>
          <polyline points="563.901 164.147 556.193 172.847 548.223 164.033" fill="#f3f5fd"></polyline>
          <rect x="555.386" y="172.847" width="1.431" height="24.487" fill="#c1d8ed"></rect>
          <rect x="550.671" y="197.062" width="10.862" height="1.339" fill="#c1d8ed"></rect>
        </g>
      </g>
    </g>
    <g>
      <g>
        <path d="M157.541,551.6l-20.853-2.48c.939-7.893,2-17.373,2.072-18.928,0,.1,0,.181,0,.245h21C159.755,531.062,159.755,532.977,157.541,551.6Z" fill="#E98862"></path>
        <path d="M23.672,544.851,4.6,536.07s9.067-19.7,9.865-21.445l19.105,8.717C32.767,525.094,23.672,544.851,23.672,544.851Z" fill="#E98862"></path>
        <path d="M43.523,562.84a4.109,4.109,0,0,0,5.547-2.335h0a4.111,4.111,0,0,0-.954-4.315l-18.836-17.6a3.461,3.461,0,0,0-2.746-.9,19.117,19.117,0,0,1-11.845-1.668A17.035,17.035,0,0,1,8,529.43a1.547,1.547,0,0,0-2.8.044L.242,540.347A2.68,2.68,0,0,0,1.577,543.9Z" fill="#c1d8ed"></path>
        <path d="M183.127,562.228A4.11,4.11,0,0,0,187.2,557.8h0a4.11,4.11,0,0,0-2.659-3.529L160.1,546.085a3.457,3.457,0,0,0-2.872.319,19.112,19.112,0,0,1-11.468,3.4,17.035,17.035,0,0,1-8.82-3.222,1.546,1.546,0,0,0-2.527,1.2v11.952a2.677,2.677,0,0,0,2.688,2.678Z" fill="#c1d8ed"></path>
        <path d="M188.945,413.58c-9.235-39.628-37.026-135.9-37.026-135.9l-76.077-4.7s-7.29,118.461-9.087,146.674L4.356,523.772l31.4,17.565c1.126-4.205,76.933-111.312,71.939-113.629,2.682-29.431,7.058-69.97,9.794-103.672,12.465,31.367,24.6,62.987,34.5,95.108L128.621,542.169l36.34,2.96,24.226-123.5A17.564,17.564,0,0,0,188.945,413.58Z" fill="#262626"></path>
      </g>
      <g>
        <path d="M110.332,167.51s8.342-2.645,10.423-23.67L137,143.793s-5.154,18.25,1.722,25.6Z" fill="#E98862"></path>
        <path d="M136.213,164.92l-11.235-12.371,10.275,1.764A28.735,28.735,0,0,0,136.213,164.92Z" opacity="0.14"></path>
        <path d="M113.3,134.181c-.058,6.483,2.286,13.06,7.459,16.1a40.506,40.506,0,0,0,18.574,6.048c17.463,1.728,21.2-38.016,14.414-47.105s-31.634-8.65-36.869,3.528C114.173,119.051,113.358,128.01,113.3,134.181Z" fill="#E98862"></path>
        <g>
          <circle cx="139.058" cy="132.404" r="1.449" fill="#0f1011"></circle>
          <circle cx="150.472" cy="133.534" r="1.449" fill="#0f1011"></circle>
          <path d="M153.619,130.958a.654.654,0,0,1-.131-.013l-3.767-.736a.681.681,0,1,1,.26-1.336l3.768.736a.681.681,0,0,1-.13,1.349Z" fill="#0f1011"></path>
          <path d="M136.575,129.271a.681.681,0,0,1-.038-1.36l3.887-.217a.665.665,0,0,1,.717.642.681.681,0,0,1-.641.718l-3.887.216Z" fill="#0f1011"></path>
          <path d="M137.669,143.751s5.161,1.515,9.084.9c0,0-.661,3.46-4.887,3.042S137.669,143.751,137.669,143.751Z" fill="#f8fcff"></path>
        </g>
        <path d="M127.85,120.01c-3.731,28.947-8.206,31.189-8.206,31.189s-12.755-11.23-11.484-28.791c1.191-16.462,14.825-23.823,23.19-24.154,31.787-1.258,30.085,27.163,30.085,27.163-16,1.141-37-5.437-37-5.437" fill="#0f1011"></path>
        <path d="M131.006,134.54a6.142,6.142,0,1,1-12.225-1.21,6.041,6.041,0,0,1,6.717-5.508C129.831,128.467,131.34,131.164,131.006,134.54Z" fill="#E98862"></path>
        <circle cx="103.849" cy="107.907" r="14.006" fill="#0f1011"></circle>
        <path d="M144.033,141.473a.5.5,0,0,1-.059-1l3.062-.362-1.2-4.886a.5.5,0,0,1,.971-.239l1.339,5.436a.5.5,0,0,1-.426.616l-3.624.428Z" opacity="0.14"></path>
      </g>
      <g>
        <path d="M241.419,173.906l.48-.159-3.709,4.581,11.528,4.314S268.8,172.21,268.743,157.3a1.888,1.888,0,0,0-3.281-1.266c-3.867,4.241-10.991,11.545-15.613,13.257.842-2.083,1.824-5,.906-5.393C248.34,162.857,243.294,171.59,241.419,173.906Z" fill="#E98862"></path>
        <path d="M240.343,168.875l-38.918,42.058-41.273-37.245-.08.089c-3.017-3.048-7.5-5.188-13.959-6.11-.624-.092-1.627-.212-2.919-.359-.8,5.447-34.692,2.073-34.857-3.58-9.573-.938-17.716,1.221-22.714,5.319-17.224,14.122-.631,42.735-2.7,63.633s-12.45,29.337-12.815,40.133c-.573,16.966,81.751,21.093,86.868,11.923,5.276-9.447-2.848-16.4.736-48.664,1.052-9.507,3.907-20.032,5.851-29.935l31.246,28.2a10.9,10.9,0,0,0,15.306-.69l46.231-49.96Z" fill="#010316"></path>
        <path d="M143.194,167.308c-.8,5.447-4.572,13.2-13.817,12.9-12.32-.406-20.875-10.829-21.04-16.482l.031,0C120.419,164.923,136.179,166.5,143.194,167.308Z" fill="#E98862"></path>
        <path d="M106.408,236.453l.408.3-5.882-.367,3.167,11.894s19.56,9.5,31.68.812a1.888,1.888,0,0,0-.871-3.407c-5.7-.693-15.778-2.264-19.853-5.038,2.186-.521,5.131-1.411,4.92-2.388C119.424,235.688,109.384,236.639,106.408,236.453Z" fill="#E98862"></path>
        <path d="M105.163,253.01l-51.147-2.831a10.9,10.9,0,0,1-8.626-16.69L84.9,170.676l18.457,11.609L73.7,229.431l32.666,1.809Z" fill="#010316"></path>
        <g>
          <polyline points="273.905 150.426 256.347 169.983 238.789 150.426" fill="#c1d8ed"></polyline>
          <polyline points="264.146 158.883 256.439 167.584 248.468 158.769" fill="#f3f5fd"></polyline>
          <rect x="255.632" y="167.584" width="1.431" height="24.487" fill="#c1d8ed"></rect>
          <rect x="250.916" y="191.799" width="10.862" height="1.339" fill="#c1d8ed"></rect>
        </g>
      </g>
    </g>
  </g>
</svg>