<svg id="Layer_1" data-name="Layer 1" xmlns="http://www.w3.org/2000/svg" viewBox="0 0 1161.267 712.022">
  <path d="M1161.267,712.022H0c12.725-32.449,36.219-59.976,69.349-68.143,48.457-11.93,99.738,20.875,148.088,8.539,27.469-7,49.094-27.4,71.819-44.34,85.729-63.917,203.212-82.809,304.656-48.977,53.027,17.675,101.344,48.585,155.663,61.726,70.24,17,143.695,2.9,215.929.579C1035.854,619.146,1136.651,647.81,1161.267,712.022Z" fill="#f3f5fd"></path>
  <g>
    <path d="M483.867,628.183c-5-1.636-10.132.205-15.041,3.935,6.467-16.33,9.136-31.08-1.92-31.745-7.736-.464-13.662,5.47-18.164,13.908-1.583-14.835-5.668-25.9-14.819-22.231-10.046,4.027-11.574,17.829-10.05,32.271-4.426-7.376-9.191-11.49-13.518-7.163-12.913,12.913,18.783,49.3,18.783,49.3s27.263,10.358,37.877-.75C481.4,650.653,495.808,632.092,483.867,628.183Z" fill="#8ddbe0"></path>
    <polygon points="469.754 712.022 425.204 712.022 417.746 660.015 477.211 660.015 469.754 712.022" fill="#c1d8ed"></polygon>
  </g>
  <path d="M754.482,712.022H593.388c-11.818-9.431-12.632-30.678-.384-40.167,9.441-7.312,23.713-5.356,32.587,2.25a31.464,31.464,0,0,1-.1-17.358c2.886-10.23,9.3-20.622,19.093-24.759,24.99-10.545,42.748,11.549,46.307,23.9,6.4-9.409,20.711-14.382,29.7-8.048,11.381,8.022,10.866,20.67,1.788,29.748,12.1-2.255,21.206-.515,29.6,8.49C758.361,692.935,759.339,704.615,754.482,712.022Z" fill="#8ddbe0"></path>
  <g>
    <path d="M287.07,180.146l-2.832-2.63q1.983-2.135,4-4.239l2.792,2.67Q289.033,178.032,287.07,180.146Z" fill="#c1d8ed"></path>
    <path d="M299.075,167.765l-2.715-2.749c2.747-2.713,5.563-5.413,8.368-8.026l2.633,2.828C304.584,162.405,301.8,165.079,299.075,167.765Zm526.413.159c-2.706-2.683-5.485-5.361-8.263-7.961l2.641-2.821c2.8,2.624,5.612,5.329,8.343,8.039ZM315.876,152.115l-2.55-2.9c2.892-2.541,5.86-5.072,8.82-7.524l2.465,2.977C321.679,147.092,318.74,149.6,315.876,152.115Zm492.857.132c-2.862-2.525-5.795-5.037-8.715-7.464l2.47-2.971c2.95,2.451,5.911,4.987,8.8,7.537ZM333.559,137.475l-2.376-3.047c3.028-2.36,6.139-4.713,9.248-6.992l2.285,3.118C339.637,132.809,336.556,135.138,333.559,137.475Zm457.527.105c-3-2.35-6.079-4.684-9.141-6.935l2.289-3.113c3.092,2.274,6.2,4.631,9.233,7.005ZM352.072,123.907l-2.19-3.184c3.176-2.185,6.422-4.347,9.647-6.427l2.1,3.248C358.431,119.6,355.218,121.743,352.072,123.907Zm420.527.079c-3.132-2.163-6.342-4.308-9.541-6.377l2.1-3.245c3.23,2.09,6.474,4.257,9.637,6.442ZM371.359,111.47l-2-3.309c3.305-1.993,6.674-3.956,10.015-5.835l1.894,3.367C377.966,107.554,374.631,109.5,371.359,111.47Zm381.971.053c-3.27-1.977-6.6-3.924-9.909-5.788l1.9-3.366c3.339,1.883,6.708,3.85,10.011,5.847Zm-361.974-11.3L389.564,96.8c3.411-1.784,6.892-3.539,10.349-5.215l1.687,3.476C398.178,96.718,394.731,98.455,391.356,100.221Zm341.983.031c-3.381-1.772-6.829-3.512-10.247-5.172L724.78,91.6c3.455,1.677,6.937,3.435,10.352,5.225ZM412,90.213l-1.579-3.527c3.517-1.574,7.1-3.111,10.649-4.57l1.469,3.574C419.023,87.134,415.477,88.656,412,90.213Zm300.694.013c-3.483-1.561-7.031-3.085-10.547-4.531l1.469-3.574c3.554,1.461,7.139,3,10.658,4.578ZM433.21,81.5l-1.359-3.618c3.606-1.352,7.276-2.665,10.91-3.9l1.244,3.658C440.41,78.857,436.777,80.156,433.21,81.5Zm258.252,0c-3.572-1.342-7.21-2.642-10.81-3.867l1.244-3.659c3.638,1.238,7.314,2.552,10.924,3.908ZM454.915,74.111l-1.131-3.694c3.678-1.126,7.422-2.207,11.13-3.215l1.013,3.73C462.259,71.929,458.554,73,454.915,74.111ZM669.726,74.1c-3.646-1.114-7.358-2.186-11.033-3.184l1.013-3.729c3.713,1.009,7.465,2.091,11.15,3.217Zm-192.695-6-.9-3.758c3.741-.893,7.544-1.738,11.306-2.511l.777,3.785C484.5,66.378,480.733,67.214,477.031,68.1Zm170.533-.018c-3.706-.882-7.479-1.719-11.214-2.485l.777-3.785c3.774.774,7.587,1.619,11.333,2.511Zm-148.089-4.6-.66-3.807c3.783-.656,7.63-1.261,11.435-1.8l.541,3.827C507.026,62.233,503.218,62.832,499.475,63.48Zm125.589-.018c-3.76-.649-7.579-1.247-11.351-1.777l.538-3.827c3.812.536,7.671,1.14,11.47,1.8ZM522.156,60.279l-.42-3.841c3.822-.418,7.7-.781,11.522-1.078l.3,3.852C529.774,59.506,525.938,59.866,522.156,60.279Zm80.152-.015c-3.783-.411-7.633-.769-11.442-1.064l.3-3.853c3.849.3,7.739.659,11.563,1.076ZM544.986,58.5l-.181-3.86c3.842-.179,7.74-.3,11.588-.36l.059,3.864C552.645,58.2,548.787,58.323,544.986,58.5Zm34.406-.007c-3.641-.168-7.343-.284-11-.344l-.467-.008.063-3.864.468.008c3.7.061,7.436.178,11.116.348Z" fill="#c1d8ed"></path>
    <path d="M837.534,180.412q-1.957-2.12-3.942-4.21l2.8-2.662q2.005,2.111,3.981,4.25Z" fill="#c1d8ed"></path>
  </g>
  <g>
    <g>
      <rect x="688.946" y="196.894" width="266.252" height="508.609" rx="28.903" fill="#fff"></rect>
      <path d="M926.3,712.022H717.849A35.462,35.462,0,0,1,682.427,676.6V225.8a35.463,35.463,0,0,1,35.422-35.423H926.3A35.464,35.464,0,0,1,961.718,225.8V676.6A35.463,35.463,0,0,1,926.3,712.022ZM717.849,203.413A22.409,22.409,0,0,0,695.466,225.8V676.6a22.408,22.408,0,0,0,22.383,22.383H926.3A22.408,22.408,0,0,0,948.678,676.6V225.8A22.408,22.408,0,0,0,926.3,203.413Z" fill="#dee8f5"></path>
    </g>
    <path d="M776.432,196.894h91.281a0,0,0,0,1,0,0V214.6a13.256,13.256,0,0,1-13.256,13.256H789.688A13.256,13.256,0,0,1,776.432,214.6v-17.71A0,0,0,0,1,776.432,196.894Z" fill="#dee8f5"></path>
  </g>
  <g>
    <path d="M906.626,559.6l-.079-68.678a2.956,2.956,0,0,0-3.116-3.134l-81.359.077-81.359-.077a2.957,2.957,0,0,0-3.116,3.134l-.078,68.678-.007,10.253a2.969,2.969,0,0,0,3.127,3.139l14.285.015,47.813.046.008.032,19.327-.016,19.327.016.008-.032L889.22,573l14.285-.015a2.97,2.97,0,0,0,3.128-3.139Z" fill="#8ddbe0"></path>
    <path d="M897.2,509.631a12.521,12.521,0,0,1-12.492-12.456l-62.638.054-62.638-.054a12.521,12.521,0,0,1-12.492,12.456l-.044,41.518a12.218,12.218,0,0,1,4.152.722,12.6,12.6,0,0,1,7.226,6.64,12.12,12.12,0,0,1,1.1,5.136l40.8.037.009.034,21.885-.017,21.884.017.01-.034,40.8-.037a12.15,12.15,0,0,1,1.1-5.136,12.6,12.6,0,0,1,7.226-6.64,12.218,12.218,0,0,1,4.152-.722Z" fill="#fff" opacity="0.47"></path>
    <g>
      <circle cx="772.51" cy="530.26" r="7.801" fill="#8ddbe0"></circle>
      <circle cx="871.634" cy="530.26" r="7.801" fill="#8ddbe0"></circle>
      <g>
        <path d="M835.825,507.286a26.036,26.036,0,0,1,13.045,21.45c.117,4.306,0,9.325-4.541,16.621a24.984,24.984,0,0,1-9.456,8.546,24.616,24.616,0,0,1-5.1,2.107,26.325,26.325,0,0,1-7.7,1.129,26.789,26.789,0,0,1-23.244-13.471,26.332,26.332,0,0,1-3.579-13.226c-.011-.052,0-.1-.009-.148a26.889,26.889,0,0,1,26.868-26.826c.484.011.967.021,1.444.054A26.017,26.017,0,0,1,835.825,507.286Z" fill="#8ddbe0"></path>
        <path d="M820.444,546.909l0-3.948a14.115,14.115,0,0,1-3.651-.97,10.8,10.8,0,0,1-3.294-2.036l2.53-3.906a13.2,13.2,0,0,0,2.861,1.719,7.109,7.109,0,0,0,2.782.575,3.636,3.636,0,0,0,2.429-.669,2.581,2.581,0,0,0,.771-2.052,2.274,2.274,0,0,0-.768-1.738,10.172,10.172,0,0,0-1.934-1.363q-1.164-.652-2.5-1.3a13.909,13.909,0,0,1-2.5-1.562,8.268,8.268,0,0,1-1.933-2.133,5.532,5.532,0,0,1-.767-3,7.292,7.292,0,0,1,1.6-4.835,7.381,7.381,0,0,1,4.4-2.463l0-4.066,3.83,0,0,3.987a8.719,8.719,0,0,1,3.315,1.148,12.329,12.329,0,0,1,2.565,2.094l-2.925,3.314a9.09,9.09,0,0,0-2.051-1.482,4.965,4.965,0,0,0-2.25-.5,3.437,3.437,0,0,0-2.172.591,2.316,2.316,0,0,0-.752,1.933,2.02,2.02,0,0,0,.769,1.6,10,10,0,0,0,1.933,1.245q1.164.594,2.506,1.226a13.238,13.238,0,0,1,2.5,1.542,7.934,7.934,0,0,1,1.933,2.192,6.088,6.088,0,0,1,.767,3.179,7.841,7.841,0,0,1-1.544,4.874,7.549,7.549,0,0,1-4.621,2.7l0,4.106Z" fill="#fff"></path>
      </g>
    </g>
  </g>
  <g>
    <g>
      <rect x="150.999" y="196.894" width="266.252" height="508.609" rx="28.903" transform="translate(568.251 902.397) rotate(-180)" fill="#fff"></rect>
      <path d="M144.48,676.6V225.8A35.463,35.463,0,0,1,179.9,190.374H388.349A35.463,35.463,0,0,1,423.771,225.8V676.6a35.462,35.462,0,0,1-35.422,35.422H179.9A35.462,35.462,0,0,1,144.48,676.6ZM179.9,203.413A22.409,22.409,0,0,0,157.519,225.8V676.6A22.408,22.408,0,0,0,179.9,698.983H388.349A22.408,22.408,0,0,0,410.732,676.6V225.8a22.409,22.409,0,0,0-22.383-22.384Z" fill="#dee8f5"></path>
    </g>
    <path d="M251.741,196.894h64.768a13.256,13.256,0,0,1,13.256,13.256v17.71a0,0,0,0,1,0,0H238.485a0,0,0,0,1,0,0V210.15A13.256,13.256,0,0,1,251.741,196.894Z" transform="translate(568.251 424.754) rotate(-180)" fill="#dee8f5"></path>
  </g>
  <rect x="215.638" y="283.721" width="136.974" height="61.328" rx="13.91" fill="#262626"></rect>
  <g>
    <rect x="176.58" y="418.975" width="215.091" height="131.87" rx="11.572" fill="#FF5D76"></rect>
    <g>
      <rect x="194.4" y="436.796" width="32.611" height="24.236" rx="6.277" fill="#fff"></rect>
      <path d="M227.011,439.484v5.687H215.963l-1.783-1.782V436.8h10.143A2.687,2.687,0,0,1,227.011,439.484Z" fill="#262626"></path>
      <path d="M227.011,452.656v5.687a2.687,2.687,0,0,1-2.688,2.688H214.18V454.26l1.783-1.6Z" fill="#262626"></path>
      <path d="M207.052,436.8v6.593l-1.6,1.782H194.4v-5.687a2.687,2.687,0,0,1,2.688-2.688Z" fill="#262626"></path>
      <path d="M207.052,454.26v6.771h-9.964a2.687,2.687,0,0,1-2.688-2.688v-5.687h11.049Z" fill="#262626"></path>
    </g>
    <g>
      <path d="M230.911,483.671H197.166a2.766,2.766,0,0,1,0-5.532h33.745a2.766,2.766,0,0,1,0,5.532Z" fill="#fff"></path>
      <path d="M278.394,483.671H244.649a2.766,2.766,0,0,1,0-5.532h33.745a2.766,2.766,0,1,1,0,5.532Z" fill="#fff"></path>
      <path d="M325.878,483.671H292.132a2.766,2.766,0,1,1,0-5.532h33.746a2.766,2.766,0,1,1,0,5.532Z" fill="#fff"></path>
      <path d="M373.361,483.671H339.615a2.766,2.766,0,1,1,0-5.532h33.746a2.766,2.766,0,1,1,0,5.532Z" fill="#fff"></path>
    </g>
    <path d="M373.851,513.6a14.257,14.257,0,0,1-28.513,0,14.119,14.119,0,0,1,5.346-11.048A14.183,14.183,0,0,1,373.851,513.6Z" fill="#fff"></path>
    <path d="M343.556,524.65a14.257,14.257,0,1,1,0-22.1A14.39,14.39,0,0,0,338.21,513.6,14.118,14.118,0,0,0,343.556,524.65Z" fill="#262626"></path>
  </g>
  <g>
    <g>
      <g>
        <path d="M109.387,297.119s8.042-3.454,8.042-24.581l16.165-1.647s-3.332,18.668,4.234,25.3Z" fill="#E98862"></path>
        <path d="M109.062,263.659c.58,6.458,3.56,12.772,9.008,15.289a40.5,40.5,0,0,0,19.079,4.189c17.548,0,17.35-39.918,9.705-48.295s-32.332-5.494-36.342,7.141C108.438,248.517,108.509,257.513,109.062,263.659Z" fill="#E98862"></path>
      </g>
      <path d="M145.93,251.055A66.853,66.853,0,0,0,156.1,250.2s-1.03-25.922-28.559-24.444a51.308,51.308,0,0,0-10.688.63c-8.274,1.269-20,9.729-21.9,30.9-.868,9.713-4.217,18.869-6.771,24.666a4.471,4.471,0,0,0,4.083,6.285l58.979-.467a4.467,4.467,0,0,0,4.281-5.759C152.318,271.383,146.451,264.872,145.93,251.055Z" fill="#0f1011"></path>
    </g>
    <g>
      <path d="M165.06,436.251c19.951,87.888,38.015,176.366,52.271,265.367l-20.039,4.122c-22.031-87.4-40.359-175.826-56.719-264.452Z" fill="#E98862"></path>
      <path d="M123.822,441.7c1.832,87.313,1.7,174.821-2.27,262.074h-20.46c-3.968-87.252-4.1-174.763-2.27-262.074Z" fill="#E98862"></path>
      <path d="M148.021,711.836a4.108,4.108,0,0,0,4.076-4.428h0a4.108,4.108,0,0,0-2.658-3.529L125,695.693a3.461,3.461,0,0,0-2.872.319,19.1,19.1,0,0,1-11.468,3.4,17.031,17.031,0,0,1-8.82-3.222,1.547,1.547,0,0,0-2.528,1.2v11.952A2.678,2.678,0,0,0,102,712.022Z" fill="#c1d8ed"></path>
      <path d="M241.755,711.836a4.109,4.109,0,0,0,4.076-4.428h0a4.109,4.109,0,0,0-2.659-3.529l-24.442-8.186a3.463,3.463,0,0,0-2.873.319,19.1,19.1,0,0,1-11.467,3.4,17.035,17.035,0,0,1-8.821-3.222,1.546,1.546,0,0,0-2.527,1.2v11.952a2.677,2.677,0,0,0,2.689,2.678Z" fill="#c1d8ed"></path>
      <path d="M86.149,404s-11.36,50.872-11.36,93.654S61.745,606.7,61.745,606.7s36.967-5.98,62.045,0C167,617,205.742,594.565,205.742,594.565L162.226,408.7Z" fill="#262626"></path>
    </g>
    <g>
      <g>
        <path d="M62.793,438.623c0,2.98,1.573,12.942-.957,13.654-1.518.427-3.31-7-3.31-7" fill="#E98862"></path>
        <path d="M50.845,437.058s-8.264,20.114,1.162,31.669a1.888,1.888,0,0,0,3.346-1.081c.458-7.791,2.03-23.8,7.166-21.925V433.157" fill="#E98862"></path>
      </g>
      <path d="M163.141,351.133c-.376,3.763-.649,7.46-.69,10.993-.384,32.468,8.382,38.584,4.063,48.51-4.2,9.625-86.524,13.628-87.624-3.317-.7-10.777,8.8-20.19,8.8-41.195a53.353,53.353,0,0,0-1.573-11.836l-9.27,25.206-9.1,61.3-21.569-3.2,9.265-62.414A10.873,10.873,0,0,1,56,373.021l22.953-62.415.138.051a20.153,20.153,0,0,1,5.02-8.129c4.569-4.569,12.48-7.526,22.116-7.526,14.344,0,33.935.031,37.95.2,11.74.5,17.495,5.561,20.023,13.112C164.2,308.318,165.5,323.106,163.141,351.133Z" fill="#414D55"></path>
      <g>
        <path d="M246.969,342.156s14.239-3.807,16.3-6.5-2.811-11.875-2.811-11.875,14.255-5.684,12.908-7.991c-1.589-2.724-19.408,6.81-19.408,6.81s3.9-4.523,2.022-5.745c-.771-.5-1.786.028-4.7,3.162-3.317,3.571-9.04,8.627-9.04,8.627Z" fill="#E98862"></path>
        <path d="M187.841,384.154a10.916,10.916,0,0,1-9.519-5.585l-36.115-64.646,19.035-10.635,28.636,54.259,50.806-31.413,10.735,17.587s-40.116,27.592-52.875,35.21C195.855,380.537,190.935,384.154,187.841,384.154Z" fill="#414D55"></path>
      </g>
    </g>
  </g>
  <g>
    <circle cx="562.305" cy="56.385" r="56.385" fill="#f3f5fd"></circle>
    <g>
      <path d="M584.127,46.4h-3.108V39.457a18.714,18.714,0,1,0-37.427,0V46.4h-3.108a5.355,5.355,0,0,0-5.356,5.356V86.671a5.355,5.355,0,0,0,5.356,5.356h43.643a5.356,5.356,0,0,0,5.356-5.356V51.756A5.356,5.356,0,0,0,584.127,46.4Zm-34.452-6.943a12.63,12.63,0,1,1,25.26,0V46.4h-25.26Z" fill="#FF5D76"></path>
      <circle cx="562.305" cy="69.573" r="7.75" fill="#fff"></circle>
    </g>
  </g>
  <g>
    <circle cx="822.072" cy="361.484" r="82.987" fill="#c1d8ed"></circle>
    <path d="M807.842,406.794a6.782,6.782,0,0,1-4.651-1.848L771.668,375.2a6.778,6.778,0,1,1,9.3-9.859l26.5,25,55.339-60.98a6.777,6.777,0,0,1,10.038,9.109l-59.983,66.1a6.778,6.778,0,0,1-4.756,2.218C808.017,406.792,807.929,406.794,807.842,406.794Z" fill="#fff"></path>
  </g>
  <g>
    <g>
      <path d="M976.643,703.714s-.071-21.748-.071-23.674h21c0,1.92.071,23.605.071,23.605Z" fill="#E98862"></path>
      <path d="M951.114,711.836a4.109,4.109,0,0,1-4.076-4.428h0a4.107,4.107,0,0,1,2.659-3.529l24.442-8.186a3.463,3.463,0,0,1,2.873.319,19.1,19.1,0,0,0,11.467,3.4,17.035,17.035,0,0,0,8.821-3.222,1.546,1.546,0,0,1,2.527,1.2v11.952a2.677,2.677,0,0,1-2.689,2.678Z" fill="#c1d8ed"></path>
      <path d="M892.967,701.2c-2.214-18.618-2.214-20.533-2.214-21.163h21c0-.063,0-.145,0-.245.074,1.555,1.134,11.035,2.072,18.928Z" fill="#E98862"></path>
      <path d="M966.186,696.5l36.869-3.115c-4.492-68.715-18.388-290.791-18.388-290.791l-76.077,4.7-.782,5.33-.267-.079c-8.92,47.286-12.716,99.512-19.947,147.134-.509,44.1-.649,90.292-2.374,134.272l37,.63c-.118-42.928.948-87.845,2.211-130.9,6.312-34.336,11.254-70.27,18.515-104.942C949.283,530.141,959.5,628.293,966.186,696.5Z" fill="#262626"></path>
      <path d="M867.381,711.836a4.108,4.108,0,0,1-4.076-4.428h0a4.108,4.108,0,0,1,2.658-3.529l24.443-8.186a3.461,3.461,0,0,1,2.872.319,19.1,19.1,0,0,0,11.468,3.4,17.031,17.031,0,0,0,8.82-3.222,1.547,1.547,0,0,1,2.528,1.2v11.952a2.678,2.678,0,0,1-2.689,2.678Z" fill="#c1d8ed"></path>
    </g>
    <g>
      <path d="M953.769,281.326c-.013-.1-.016-.2-.019-.3-.051-1.819-.036-3.79.083-5.954l-16.047-2.519a58.424,58.424,0,0,1,.175,10.119q-.066.871-.16,1.775c-.552,4.907-1.976,10.1-5.348,12.936l24.99-.7C955.787,293.974,954.043,289.271,953.769,281.326Z" fill="#E98862"></path>
      <path d="M962.667,266.65c-.925,6.418-4.24,12.563-9.814,14.785-6.618,2.637-11.567,2.942-19.277,3.159-10.521.3-10.482-10.685-11.089-21.734-.61-11.093-.063-23.026,3.987-27.011,8.082-7.956,32.58-3.753,35.907,9.079C964.1,251.564,963.548,260.543,962.667,266.65Z" fill="#E98862"></path>
      <path d="M916.271,242.559s-4.336-.841-3.277-5.171c.7-2.871,4.37-2.341,4.37-2.341s-3.474-.536-3.559-3.553c-.054-1.9,1.316-5.164,5.776-3.447,5.232,2.014,11.123,1.571,15.586.69a51.722,51.722,0,0,1,7.674-1.305l.013,0v0a29.7,29.7,0,0,1,8.844.93c8.084,2.173,20.608,9.045,18.3,25.388-2.494,17.663-12.984,25.69-14.425,26.8-2.712,2.091-19.724,2.979-21.458,1.34-2.6-2.454-4.259-12.567-4.242-30.266-7.008-.908-11.815-1.244-11.815-1.244s-5.8.381-5.915-3.857S916.271,242.559,916.271,242.559Z" fill="#0f1011"></path>
      <path d="M925.152,264.883a6.143,6.143,0,1,0,12.268.658,6.042,6.042,0,0,0-5.8-6.463C927.235,259.059,925.334,261.5,925.152,264.883Z" fill="#E98862"></path>
    </g>
    <g>
      <path d="M1013.51,447.4l-11.947,1.564c0,2.98-1.574,12.943.957,13.655.962.27,2.033-2.612,2.689-4.76,2.516,4.239,3.456,14.4,3.793,20.129a1.888,1.888,0,0,0,3.346,1.081C1021.774,467.517,1013.51,447.4,1013.51,447.4Z" fill="#E98862"></path>
      <path d="M907.4,362.126c-.324-27.732-14.9-65.5,18.276-66.92,4.014-.173,23.606-.2,37.949-.2,9.637,0,17.548,2.957,22.116,7.526,15.751,15.751-3.582,42.591-3.582,63.6s9.5,30.418,8.8,41.195c-1.1,16.946-83.428,12.942-87.623,3.317C899.017,400.71,907.783,394.594,907.4,362.126Z" fill="#414D55"></path>
      <path d="M998.131,452.359l-8.239-76.932-21.728-60.62,20.525-7.357,22.167,61.844a10.879,10.879,0,0,1,.578,2.518l8.377,78.225Z" fill="#414D55"></path>
      <path d="M820.748,336.048c.948-1.98,2.042-5,.7-6.346-1.376-1.376-3.676,1.895-5.085,4.285-3.232-1.368-6.848-2.509-7.983-1.374-2.2,2.2-4.826,9.611-3.522,13.132s14.3,4.159,14.3,4.159l4.3-13.159A12.255,12.255,0,0,1,820.748,336.048Z" fill="#E98862"></path>
      <path d="M874.6,370.344a10.885,10.885,0,0,1-3.082-.446l-54.61-16.1,6.164-20.915,47.785,14.085,38.7-45.87,16.666,14.061-43.29,51.308A10.906,10.906,0,0,1,874.6,370.344Z" fill="#414D55"></path>
    </g>
  </g>
  <path d="M271.988,328.615l3.628-5.627c2.876,2.2,5.391,3.328,8.067,3.328,3.206,0,4.617-1.33,4.617-3.9,0-5.821-14.934-5.716-14.934-15.925,0-6.563,4.546-10.743,11.715-10.743a14.03,14.03,0,0,1,10.77,4.8l-4.162,4.767c-2.056-1.87-3.8-2.855-6.162-2.855-2.722,0-4.2,1.1-4.2,3.639,0,5.395,14.934,4.924,14.934,15.738,0,6.5-4.3,11.2-12.58,11.2A18.827,18.827,0,0,1,271.988,328.615Zm9.95-38.417h5.519v8.148h-5.519Zm0,39.433h5.519v8.94h-5.519Z" fill="#fff"></path>
</svg>