<svg id="Layer_1" data-name="Layer 1" xmlns="http://www.w3.org/2000/svg" viewBox="0 0 709.651 581.026">
  <g>
    <rect x="100.269" width="541.914" height="392.45" fill="#dee8f5"></rect>
    <rect x="100.269" width="541.914" height="32.328" fill="#c1d8ed"></rect>
    <circle cx="624.033" cy="16.164" r="8.111" fill="#fff"></circle>
  </g>
  <g>
    <g>
      <g>
        <circle cx="652.982" cy="375.694" r="51.057" fill="#FFB507"></circle>
        <g opacity="0.29">
          <circle cx="652.982" cy="375.694" r="33.098" fill="#fff"></circle>
        </g>
      </g>
      <path d="M642.153,387.516l3.087-4.787c2.447,1.875,4.588,2.831,6.864,2.831,2.729,0,3.929-1.132,3.929-3.323,0-4.953-12.708-4.864-12.708-13.551,0-5.585,3.87-9.142,9.969-9.142a11.934,11.934,0,0,1,9.165,4.084l-3.541,4.056c-1.75-1.591-3.234-2.429-5.244-2.429-2.316,0-3.573.934-3.573,3.1,0,4.591,12.708,4.19,12.708,13.392,0,5.528-3.658,9.527-10.7,9.527A16.018,16.018,0,0,1,642.153,387.516Zm8.467-32.69h4.7v6.933h-4.7Zm0,33.555h4.7v7.608h-4.7Z" fill="#fff"></path>
    </g>
    <g>
      <rect x="594.61" y="555.044" width="115.041" height="25.982" rx="8.513" fill="#FFB507"></rect>
      <rect x="579.351" y="529.062" width="115.041" height="25.982" rx="8.513" fill="#FFB507"></rect>
      <rect x="594.61" y="503.079" width="115.041" height="25.982" rx="8.513" fill="#FFB507"></rect>
      <rect x="586.981" y="477.569" width="115.041" height="25.982" rx="8.513" fill="#FFB507"></rect>
      <rect x="571.721" y="451.586" width="115.041" height="25.982" rx="8.513" fill="#FFB507"></rect>
      <rect x="586.981" y="425.604" width="115.041" height="25.982" rx="8.513" fill="#FFB507"></rect>
    </g>
  </g>
  <g>
    <rect x="438.429" y="555.044" width="115.041" height="25.982" rx="8.513" fill="#FFB507"></rect>
    <rect x="446.689" y="529.061" width="115.041" height="25.982" rx="8.513" fill="#FFB507"></rect>
    <rect x="438.429" y="503.079" width="115.041" height="25.982" rx="8.513" fill="#FFB507"></rect>
  </g>
  <g>
    <rect x="159.442" y="58.558" width="423.568" height="277.181" fill="#fff"></rect>
    <g>
      <path d="M205.589,327.106a.5.5,0,0,1-.5-.5V67.828a.5.5,0,0,1,1,0V326.606A.5.5,0,0,1,205.589,327.106Z" fill="#dee8f5"></path>
      <path d="M242.334,327.106a.5.5,0,0,1-.5-.5V67.828a.5.5,0,0,1,1,0V326.606A.5.5,0,0,1,242.334,327.106Z" fill="#dee8f5"></path>
      <path d="M279.078,327.106a.5.5,0,0,1-.5-.5V67.828a.5.5,0,1,1,1,0V326.606A.5.5,0,0,1,279.078,327.106Z" fill="#dee8f5"></path>
      <path d="M315.821,327.106a.5.5,0,0,1-.5-.5V67.828a.5.5,0,1,1,1,0V326.606A.5.5,0,0,1,315.821,327.106Z" fill="#dee8f5"></path>
      <path d="M352.565,327.106a.5.5,0,0,1-.5-.5V67.828a.5.5,0,0,1,1,0V326.606A.5.5,0,0,1,352.565,327.106Z" fill="#dee8f5"></path>
      <path d="M389.31,327.106a.5.5,0,0,1-.5-.5V67.828a.5.5,0,0,1,1,0V326.606A.5.5,0,0,1,389.31,327.106Z" fill="#dee8f5"></path>
      <path d="M426.054,327.106a.5.5,0,0,1-.5-.5V67.828a.5.5,0,1,1,1,0V326.606A.5.5,0,0,1,426.054,327.106Z" fill="#dee8f5"></path>
      <path d="M462.8,327.106a.5.5,0,0,1-.5-.5V67.828a.5.5,0,1,1,1,0V326.606A.5.5,0,0,1,462.8,327.106Z" fill="#dee8f5"></path>
      <path d="M499.542,327.106a.5.5,0,0,1-.5-.5V67.828a.5.5,0,0,1,1,0V326.606A.5.5,0,0,1,499.542,327.106Z" fill="#dee8f5"></path>
      <path d="M536.286,327.106a.5.5,0,0,1-.5-.5V67.828a.5.5,0,1,1,1,0V326.606A.5.5,0,0,1,536.286,327.106Z" fill="#dee8f5"></path>
    </g>
    <g>
      <path d="M573.03,106.117H168.846a.5.5,0,0,1,0-1H573.03a.5.5,0,0,1,0,1Z" fill="#dee8f5"></path>
      <path d="M573.03,142.861H168.846a.5.5,0,0,1,0-1H573.03a.5.5,0,0,1,0,1Z" fill="#dee8f5"></path>
      <path d="M573.03,179.605H168.846a.5.5,0,0,1,0-1H573.03a.5.5,0,0,1,0,1Z" fill="#dee8f5"></path>
      <path d="M573.03,216.349H168.846a.5.5,0,0,1,0-1H573.03a.5.5,0,0,1,0,1Z" fill="#dee8f5"></path>
      <path d="M573.03,253.093H168.846a.5.5,0,0,1,0-1H573.03a.5.5,0,0,1,0,1Z" fill="#dee8f5"></path>
      <path d="M573.03,289.837H168.846a.5.5,0,0,1,0-1H573.03a.5.5,0,0,1,0,1Z" fill="#dee8f5"></path>
    </g>
    <path d="M573.03,327.106H168.846a.5.5,0,0,1-.5-.5V67.828a.5.5,0,0,1,.5-.5H573.03a.5.5,0,0,1,.5.5V326.606A.5.5,0,0,1,573.03,327.106Zm-403.684-1H572.53V68.328H169.346Z" fill="#dee8f5"></path>
  </g>
  <g>
    <g>
      <rect x="177.889" y="262.092" width="9.053" height="35.324" fill="#8ddbe0"></rect>
      <rect x="181.487" y="246.439" width="1.857" height="66.629" fill="#8ddbe0"></rect>
    </g>
    <g>
      <rect x="191.875" y="214.999" width="9.053" height="47.99" fill="#8ddbe0"></rect>
      <rect x="195.473" y="199.347" width="1.857" height="79.295" fill="#8ddbe0"></rect>
    </g>
    <g>
      <rect x="205.861" y="215.387" width="9.053" height="22.783" fill="#fd5d76"></rect>
      <rect x="209.459" y="199.734" width="1.857" height="54.088" fill="#fd5d76"></rect>
    </g>
    <g>
      <rect x="219.847" y="183.716" width="9.053" height="54.816" fill="#8ddbe0"></rect>
      <rect x="223.445" y="168.063" width="1.857" height="86.121" fill="#8ddbe0"></rect>
    </g>
    <g>
      <rect x="233.833" y="183.308" width="9.053" height="17.445" fill="#fd5d76"></rect>
      <rect x="237.431" y="167.655" width="1.857" height="48.75" fill="#fd5d76"></rect>
    </g>
    <g>
      <rect x="247.819" y="200.099" width="9.053" height="22.783" fill="#fd5d76"></rect>
      <rect x="251.417" y="184.447" width="1.857" height="54.088" fill="#fd5d76"></rect>
    </g>
    <g>
      <rect x="261.805" y="173.787" width="9.053" height="49.477" fill="#8ddbe0"></rect>
      <rect x="265.403" y="158.135" width="1.857" height="80.782" fill="#8ddbe0"></rect>
    </g>
    <g>
      <rect x="275.791" y="223.501" width="9.053" height="34.796" fill="#fd5d76"></rect>
      <rect x="279.389" y="207.849" width="1.857" height="66.101" fill="#fd5d76"></rect>
    </g>
    <g>
      <rect x="289.777" y="189.116" width="9.053" height="34.796" fill="#8ddbe0"></rect>
      <rect x="293.375" y="173.464" width="1.857" height="66.101" fill="#8ddbe0"></rect>
    </g>
    <g>
      <rect x="303.763" y="167.784" width="9.053" height="21.449" fill="#8ddbe0"></rect>
      <rect x="307.361" y="152.132" width="1.857" height="52.754" fill="#8ddbe0"></rect>
    </g>
    <g>
      <rect x="317.749" y="167.384" width="9.053" height="34.307" fill="#fd5d76"></rect>
      <rect x="321.347" y="151.731" width="1.857" height="65.612" fill="#fd5d76"></rect>
    </g>
    <g>
      <rect x="331.735" y="202.052" width="9.053" height="13.438" fill="#fd5d76"></rect>
      <rect x="335.333" y="186.4" width="1.857" height="44.743" fill="#fd5d76"></rect>
    </g>
    <g>
      <rect x="345.721" y="185.901" width="9.053" height="16.048" fill="#8ddbe0"></rect>
      <rect x="349.319" y="170.249" width="1.857" height="47.353" fill="#8ddbe0"></rect>
    </g>
    <g>
      <rect x="359.707" y="177.047" width="9.053" height="9.516" fill="#8ddbe0"></rect>
      <rect x="363.304" y="161.395" width="1.857" height="40.821" fill="#8ddbe0"></rect>
    </g>
    <g>
      <rect x="373.693" y="138.577" width="9.053" height="38.443" fill="#8ddbe0"></rect>
      <rect x="377.29" y="122.925" width="1.857" height="69.748" fill="#8ddbe0"></rect>
    </g>
    <g>
      <rect x="387.679" y="139.033" width="9.053" height="7.65" fill="#fd5d76"></rect>
      <rect x="391.276" y="123.381" width="1.857" height="38.955" fill="#fd5d76"></rect>
    </g>
    <g>
      <rect x="401.664" y="130.949" width="9.053" height="8.583" fill="#8ddbe0"></rect>
      <rect x="405.262" y="115.296" width="1.857" height="39.888" fill="#8ddbe0"></rect>
    </g>
    <g>
      <rect x="415.65" y="131.404" width="9.053" height="40.31" fill="#fd5d76"></rect>
      <rect x="419.248" y="115.752" width="1.857" height="71.615" fill="#fd5d76"></rect>
    </g>
    <g>
      <rect x="429.636" y="171.095" width="9.053" height="19.879" fill="#fd5d76"></rect>
      <rect x="433.234" y="155.442" width="1.857" height="51.184" fill="#fd5d76"></rect>
    </g>
    <g>
      <rect x="443.622" y="190.696" width="9.053" height="7.65" fill="#fd5d76"></rect>
      <rect x="447.22" y="175.044" width="1.857" height="38.955" fill="#fd5d76"></rect>
    </g>
    <g>
      <rect x="457.608" y="171.53" width="9.053" height="27.246" fill="#8ddbe0"></rect>
      <rect x="461.206" y="155.877" width="1.857" height="58.551" fill="#8ddbe0"></rect>
    </g>
    <g>
      <rect x="541.524" y="106.036" width="9.053" height="36.577" fill="#8ddbe0"></rect>
      <rect x="545.122" y="90.384" width="1.857" height="67.882" fill="#8ddbe0"></rect>
    </g>
    <g>
      <rect x="555.51" y="97.516" width="9.053" height="8.583" fill="#8ddbe0"></rect>
      <rect x="559.108" y="81.864" width="1.857" height="39.888" fill="#8ddbe0"></rect>
    </g>
    <g>
      <rect x="471.594" y="162.198" width="9.053" height="9.516" fill="#8ddbe0"></rect>
      <rect x="475.192" y="146.546" width="1.857" height="40.821" fill="#8ddbe0"></rect>
    </g>
    <g>
      <rect x="485.58" y="143.535" width="9.053" height="18.847" fill="#8ddbe0"></rect>
      <rect x="489.178" y="127.883" width="1.857" height="50.152" fill="#8ddbe0"></rect>
    </g>
    <g>
      <rect x="499.566" y="114.901" width="9.053" height="28.179" fill="#8ddbe0"></rect>
      <rect x="503.164" y="99.248" width="1.857" height="59.484" fill="#8ddbe0"></rect>
    </g>
    <g>
      <rect x="513.552" y="114.901" width="9.053" height="9.516" fill="#fd5d76"></rect>
      <rect x="517.15" y="99.248" width="1.857" height="40.821" fill="#fd5d76"></rect>
    </g>
    <g>
      <rect x="527.538" y="124.232" width="9.053" height="18.847" fill="#fd5d76"></rect>
      <rect x="531.136" y="108.58" width="1.857" height="50.152" fill="#fd5d76"></rect>
    </g>
  </g>
  <g>
    <g>
      <path d="M139.256,570.2l-20.853-2.48c.938-7.893,2-17.373,2.072-18.928v.245h21C141.47,549.67,141.47,551.585,139.256,570.2Z" fill="#E98862"></path>
      <path d="M45.579,572.713l-21-.069s.071-21.684.071-23.6h21C45.651,550.966,45.579,572.713,45.579,572.713Z" fill="#E98862"></path>
      <path d="M110.5,567.508l36.01-8.5c-23.315-91.529-42.88-184.953-61.829-277.47l-.267.079-.781-5.329-76.077-4.7S4.6,308.845,4.6,321.293c.007,61.006,9.71,162.43,14.53,243.589l36.952-1.892c-2.175-78.7-8.048-157.515-7.626-236.236C70.579,406.394,92.647,486.885,110.5,567.508Z" fill="#262626"></path>
      <path d="M71.109,580.835a4.106,4.106,0,0,0,4.088-4.126c0-.1,0-.2-.012-.3h0a4.108,4.108,0,0,0-2.658-3.529l-24.443-8.187a3.46,3.46,0,0,0-2.872.32,19.114,19.114,0,0,1-11.468,3.4,17.031,17.031,0,0,1-8.82-3.222,1.547,1.547,0,0,0-2.528,1.2v11.958a2.678,2.678,0,0,0,2.678,2.678h.011Z" fill="#c1d8ed"></path>
      <path d="M164.843,580.835a4.108,4.108,0,0,0,4.088-4.128c0-.1,0-.2-.012-.3h0a4.106,4.106,0,0,0-2.659-3.529l-24.442-8.187a3.458,3.458,0,0,0-2.873.32,19.109,19.109,0,0,1-11.467,3.4,17.043,17.043,0,0,1-8.821-3.222,1.546,1.546,0,0,0-2.527,1.2v11.958a2.678,2.678,0,0,0,2.678,2.678h.011Z" fill="#c1d8ed"></path>
    </g>
    <path d="M168.9,242.328H109.416a10.5,10.5,0,0,1-8.841-4.836L62.993,178.824,80.679,167.5l34.484,53.832H168.9Z" fill="#010316"></path>
    <path d="M88.579,278.116c-4.19,9.63-86.52,13.63-87.62-3.31-.7-10.78,8.8-20.19,8.8-41.2s-19.33-47.84-3.58-63.59c4.57-4.57,12.46-7.52,22.08-7.53.72,5.61,34.78,5.63,35.04.13,1.3.02,2.31.04,2.94.07,33.18,1.43,18.6,39.19,18.28,66.93C84.132,262.076,92.9,268.2,88.579,278.116Z" fill="#010316"></path>
    <path d="M63.3,162.616c-.26,5.5-3.25,13.59-12.48,14.2-12.3.81-21.84-8.72-22.56-14.33h.03C40.4,162.486,56.242,162.506,63.3,162.616Z" fill="#E98862"></path>
    <g>
      <path d="M257.066,221.958,224,161.762a2.957,2.957,0,0,0-4.239-1.252l-71.319,39.153L77.054,238.679a2.958,2.958,0,0,0-1.228,4.247L108.75,303.2l4.92,9a2.969,2.969,0,0,0,4.25,1.25l12.536-6.849,41.957-22.929.023.024,16.942-9.3,16.959-9.271-.008-.032,41.911-23.009,12.522-6.876A2.97,2.97,0,0,0,262,230.947Z" fill="#8ddbe0"></path>
      <path d="M224.8,182.664a12.52,12.52,0,0,1-16.939-4.922L152.947,207.88,97.985,237.923a12.521,12.521,0,0,1-4.973,16.926l19.907,36.435a12.211,12.211,0,0,1,3.988-1.362,12.6,12.6,0,0,1,9.528,2.353,12.124,12.124,0,0,1,3.431,3.976l35.8-19.569.024.025,19.186-10.528,19.2-10.5-.007-.035,35.767-19.633a12.15,12.15,0,0,1-1.5-5.033,12.6,12.6,0,0,1,3.148-9.3,12.237,12.237,0,0,1,3.3-2.627Z" fill="#fff" opacity="0.47"></path>
      <g>
        <circle cx="125.347" cy="260.659" r="7.801" fill="#8ddbe0"></circle>
        <circle cx="212.284" cy="213.04" r="7.801" fill="#8ddbe0"></circle>
        <g>
          <path d="M169.841,210.093a26.039,26.039,0,0,1,21.746,12.546c2.171,3.721,4.479,8.179,4,16.759a24.98,24.98,0,0,1-4.187,12.038,24.628,24.628,0,0,1-3.457,4.3,26.328,26.328,0,0,1-6.208,4.687,26.788,26.788,0,0,1-26.858-.648,26.343,26.343,0,0,1-9.493-9.881c-.034-.04-.045-.086-.078-.125a26.888,26.888,0,0,1,10.677-36.435c.429-.223.858-.446,1.292-.646A26.011,26.011,0,0,1,169.841,210.093Z" fill="#8ddbe0"></path>
          <path d="M175.386,252.233l-1.894-3.464a14.1,14.1,0,0,1-3.668.9,10.778,10.778,0,0,1-3.868-.2l.342-4.641a13.264,13.264,0,0,0,3.336.134,7.094,7.094,0,0,0,2.716-.833,3.64,3.64,0,0,0,1.809-1.753,2.577,2.577,0,0,0-.309-2.17,2.27,2.27,0,0,0-1.509-1.155,10.142,10.142,0,0,0-2.351-.268q-1.334-.012-2.824.06a14.017,14.017,0,0,1-2.948-.166,8.269,8.269,0,0,1-2.719-.943,5.53,5.53,0,0,1-2.115-2.264,7.287,7.287,0,0,1-.916-5.01,7.374,7.374,0,0,1,2.679-4.276l-1.951-3.568,3.36-1.837,1.913,3.5a8.709,8.709,0,0,1,3.459-.586,12.284,12.284,0,0,1,3.255.6l-.973,4.311a9.063,9.063,0,0,0-2.511-.314,4.968,4.968,0,0,0-2.212.646,3.44,3.44,0,0,0-1.621,1.561,2.32,2.32,0,0,0,.27,2.057,2.017,2.017,0,0,0,1.442,1.034,10.029,10.029,0,0,0,2.294.163q1.3-.039,2.787-.128a13.184,13.184,0,0,1,2.938.149,7.927,7.927,0,0,1,2.748.994,6.088,6.088,0,0,1,2.2,2.42,7.836,7.836,0,0,1,.987,5.016,7.547,7.547,0,0,1-2.756,4.588l1.97,3.6Z" fill="#fff"></path>
        </g>
      </g>
    </g>
    <g>
      <path d="M236.619,189.885l-47.985-49.134a2.957,2.957,0,0,0-4.419-.07L126,197.515,67.674,254.238a2.957,2.957,0,0,0-.045,4.42L115.5,307.9l7.15,7.348a2.969,2.969,0,0,0,4.43.066l10.242-9.959L171.6,272.022l.028.017,13.831-13.5,13.854-13.476-.017-.03,34.212-33.4,10.221-9.98a2.97,2.97,0,0,0,.049-4.431Z" fill="#8ddbe0"></path>
      <path d="M195,160.676a12.519,12.519,0,0,1-17.639-.2l-44.825,43.752L87.637,247.9a12.521,12.521,0,0,1-.255,17.639l28.943,29.767a12.248,12.248,0,0,1,3.478-2.381,12.6,12.6,0,0,1,9.809-.286,12.123,12.123,0,0,1,4.372,2.911L163.233,267.1l.031.018,15.662-15.285,15.686-15.261-.017-.031,29.2-28.5A12.14,12.14,0,0,1,221,203.6a12.6,12.6,0,0,1,.541-9.8,12.25,12.25,0,0,1,2.47-3.415Z" fill="#fff" opacity="0.47"></path>
      <g>
        <circle cx="120.091" cy="262.471" r="7.801" fill="#8ddbe0"></circle>
        <circle cx="191.086" cy="193.294" r="7.801" fill="#8ddbe0"></circle>
        <g>
          <path d="M149.405,201.831a26.035,26.035,0,0,1,24.313,6.259c3.089,3,6.508,6.678,8.347,15.073a24.972,24.972,0,0,1-.809,12.719,24.581,24.581,0,0,1-2.179,5.066,26.313,26.313,0,0,1-4.724,6.179A26.789,26.789,0,0,1,148.3,253.7a26.338,26.338,0,0,1-11.793-6.975c-.043-.03-.066-.071-.109-.1a26.888,26.888,0,0,1,.522-37.964c.354-.33.707-.659,1.072-.969A26.015,26.015,0,0,1,149.405,201.831Z" fill="#8ddbe0"></path>
          <path d="M166.041,240.943l-2.753-2.83A14.087,14.087,0,0,1,160,239.966a10.789,10.789,0,0,1-3.78.841l-.914-4.563a13.242,13.242,0,0,0,3.249-.765,7.1,7.1,0,0,0,2.394-1.53,3.636,3.636,0,0,0,1.272-2.174,2.58,2.58,0,0,0-.879-2.008,2.274,2.274,0,0,0-1.763-.709,10.2,10.2,0,0,0-2.337.373q-1.288.345-2.705.814a13.956,13.956,0,0,1-2.884.63,8.261,8.261,0,0,1-2.873-.179,5.532,5.532,0,0,1-2.644-1.614,7.292,7.292,0,0,1-2.225-4.581,7.369,7.369,0,0,1,1.435-4.838l-2.836-2.915,2.745-2.67,2.78,2.858a8.7,8.7,0,0,1,3.176-1.491,12.245,12.245,0,0,1,3.3-.29l.218,4.414a9.092,9.092,0,0,0-2.5.37,4.953,4.953,0,0,0-1.957,1.216,3.434,3.434,0,0,0-1.143,1.938,2.315,2.315,0,0,0,.811,1.91,2.02,2.02,0,0,0,1.666.609,10.027,10.027,0,0,0,2.254-.458q1.248-.387,2.65-.87a13.193,13.193,0,0,1,2.871-.644,7.953,7.953,0,0,1,2.914.221,6.087,6.087,0,0,1,2.768,1.742,7.847,7.847,0,0,1,2.3,4.568,7.552,7.552,0,0,1-1.426,5.159l2.863,2.943Z" fill="#fff"></path>
        </g>
      </g>
    </g>
    <g>
      <path d="M90.617,245.589s2.408-13.154,11.714-10.865c5.871,1.445,22.934-1.134,23.193,6.406.225,6.542-15.8,8.285-21.1,7.74C99.667,248.381,90.617,245.589,90.617,245.589Z" fill="#E98862"></path>
      <path d="M98.923,234.579s13.843-2.042,16.935-.728c2.738,1.164-4,4.8-4,4.8Z" fill="#E98862"></path>
    </g>
    <path d="M103.351,252.893l-61.88-1.886a10.9,10.9,0,0,1-9.323-5.834L1.6,186.918l19.311-10.127L48.5,229.406l55.515,1.693Z" fill="#010316"></path>
    <g>
      <path d="M37.6,149.427v-.22c0-1.76-.08-3.67-.25-5.74l1.9-.35,14.08-2.61a57.53,57.53,0,0,0,.16,10.66c.05.4.1.81.16,1.22s.12.85.2,1.28c.01.09.03.19.05.29.14.78.3,1.55.5,2.31a3.9,3.9,0,0,0,.12.46.235.235,0,0,0,.02.08c.08.33.18.67.29.99.11.37.23.73.37,1.09.04.11.08.23.13.34.13.36.28.71.44,1.05.17.39.36.77.56,1.14a.01.01,0,0,1,.01.01,11.658,11.658,0,0,0,3.11,3.81H34.321C35.931,162.457,37.591,157.617,37.6,149.427Z" fill="#E98862"></path>
      <path d="M56.343,161.432,43.071,151.278,53.5,151.17A28.761,28.761,0,0,0,56.343,161.432Z" opacity="0.15"></path>
      <path d="M28.288,135.3c1.106,6.388,4.592,12.438,10.228,14.5,6.689,2.45,11.644,2.616,19.357,2.616,10.525,0,10.177-10.977,10.473-22.039.3-11.105-.586-23.018-4.746-26.888-8.3-7.724-32.673-2.833-35.638,10.087C26.429,120.263,27.235,129.223,28.288,135.3Z" fill="#E98862"></path>
      <path d="M75.642,98.894c0-5.282-6.573-13.937-24.111-2l-.017.012a49.856,49.856,0,0,0-13.529,1.479c-8.02,2.4-18.077,9.123-15.5,25.425,2.88,18.2,10.333,23.051,14.089,25.283.957.568,1.189.106,1.521-.957a81.156,81.156,0,0,0,2.229-11.969,65.907,65.907,0,0,0,.889-11.9c0-1.766.009-8.2,8.772-8.273,4.928-.041,3.086.155,8.346.155.749,0,1.412-.034,2.022-.088l.006,0C78.522,116.06,75.642,104.177,75.642,98.894Z" fill="#0f1011"></path>
      <g>
        <circle cx="53.307" cy="128.934" r="1.449" fill="#0f1011"></circle>
        <circle cx="64.738" cy="127.996" r="1.449" fill="#0f1011"></circle>
        <path d="M67.249,124.909H67.24l-3.838-.048a.681.681,0,0,1-.672-.69.643.643,0,0,1,.689-.672l3.839.048a.681.681,0,0,1-.009,1.362Z" fill="#0f1011"></path>
        <path d="M50.179,126.308a.681.681,0,0,1-.158-1.343l3.784-.911a.681.681,0,1,1,.318,1.324l-3.784.911A.679.679,0,0,1,50.179,126.308Z" fill="#0f1011"></path>
      </g>
      <path d="M45.769,132.479a6.143,6.143,0,1,1-12.244,1,6.041,6.041,0,0,1,5.62-6.624C43.523,126.716,45.492,129.1,45.769,132.479Z" fill="#E98862"></path>
      <g opacity="0.15">
        <path d="M59.739,136.971a.5.5,0,0,1-.147-.978l2.947-.905L60.478,130.5a.5.5,0,1,1,.912-.41l2.293,5.107a.5.5,0,0,1-.309.683l-3.488,1.072A.5.5,0,0,1,59.739,136.971Z"></path>
      </g>
      <path d="M53.977,140.345s5.349.564,9.1-.746c0,0-.03,3.523-4.262,3.87S53.977,140.345,53.977,140.345Z" fill="#f8fcff"></path>
    </g>
  </g>
</svg>