<svg id="Layer_1" data-name="Layer 1" xmlns="http://www.w3.org/2000/svg" viewBox="0 0 814.531 557.1">
  <g>
    <rect x="527.386" y="0.493" width="155.191" height="201.999" fill="#f4f4f4"></rect>
    <rect x="682.576" y="0.493" width="5.034" height="201.999" transform="translate(1370.187 202.985) rotate(180)" fill="#f4f4f4"></rect>
    <rect x="682.576" y="0.493" width="5.034" height="201.999" transform="translate(1370.187 202.985) rotate(180)" fill="#292a2e" opacity="0.05"></rect>
    <rect x="555.656" y="37.29" width="98.651" height="128.406" fill="#292a2e" opacity="0.05"></rect>
    <rect x="649.165" y="37.29" width="5.141" height="128.406" fill="#292a2e" opacity="0.03"></rect>
    <rect x="682.576" y="252.167" width="126.921" height="128.086" fill="#f4f4f4"></rect>
    <rect x="705.697" y="275.5" width="80.68" height="81.421" fill="#292a2e" opacity="0.05"></rect>
    <rect x="809.497" y="252.167" width="5.034" height="128.086" transform="translate(1624.028 632.42) rotate(180)" fill="#f4f4f4"></rect>
    <rect x="809.497" y="252.167" width="5.034" height="128.086" transform="translate(1624.028 632.42) rotate(180)" fill="#292a2e" opacity="0.05"></rect>
    <rect x="781.235" y="275.5" width="5.141" height="81.421" fill="#292a2e" opacity="0.03"></rect>
  </g>
  <g>
    <rect id="c_3_c" x="66.257" width="378.643" height="378.643" fill="#f4f4f4"></rect>
    <rect id="c_3_c-2" data-name="c_3_c" x="444.9" width="4.34" height="378.643" fill="#f4f4f4"></rect>
    <rect id="c_3_c-3" data-name="c_3_c" x="444.9" width="4.34" height="378.643" fill="#292a2e" opacity="0.05"></rect>
    <polygon id="c_3_c-4" data-name="c_3_c" points="353.172 260.916 353.172 161.851 272.023 161.851 272.023 219.406 146.323 219.406 146.323 321.314 92.899 321.314 92.899 378.643 146.323 378.643 156.615 378.643 426.686 378.643 426.686 260.916 353.172 260.916" fill="#292a2e" opacity="0.05"></polygon>
    <g id="c_3_wh">
      <rect id="c_3_wh-2" data-name="c_3_wh" x="282.44" y="172.607" width="59.094" height="10.756" fill="#fffffa" opacity="0.34"></rect>
      <rect id="c_3_wh-3" data-name="c_3_wh" x="282.44" y="194.896" width="59.094" height="10.756" fill="#fffffa" opacity="0.34"></rect>
      <rect id="c_3_wh-4" data-name="c_3_wh" x="282.44" y="217.185" width="59.094" height="10.756" fill="#fffffa" opacity="0.34"></rect>
    </g>
    <g id="c_3_wh-5" data-name="c_3_wh">
      <rect id="c_3_wh-6" data-name="c_3_wh" x="405.315" y="271.357" width="10.892" height="10.756" fill="#fffffa" opacity="0.34"></rect>
      <rect id="c_3_wh-7" data-name="c_3_wh" x="405.315" y="293.646" width="10.892" height="10.756" fill="#fffffa" opacity="0.34"></rect>
      <rect id="c_3_wh-8" data-name="c_3_wh" x="405.315" y="315.935" width="10.892" height="10.756" fill="#fffffa" opacity="0.34"></rect>
      <rect id="c_3_wh-9" data-name="c_3_wh" x="385.165" y="271.357" width="10.892" height="10.756" fill="#fffffa" opacity="0.34"></rect>
      <rect id="c_3_wh-10" data-name="c_3_wh" x="385.165" y="293.646" width="10.892" height="10.756" fill="#fffffa" opacity="0.34"></rect>
      <rect id="c_3_wh-11" data-name="c_3_wh" x="385.165" y="315.935" width="10.892" height="10.756" fill="#fffffa" opacity="0.34"></rect>
      <rect id="c_3_wh-12" data-name="c_3_wh" x="365.56" y="271.357" width="10.892" height="10.756" fill="#fffffa" opacity="0.34"></rect>
      <rect id="c_3_wh-13" data-name="c_3_wh" x="365.56" y="293.646" width="10.892" height="10.756" fill="#fffffa" opacity="0.34"></rect>
      <rect id="c_3_wh-14" data-name="c_3_wh" x="365.56" y="315.935" width="10.892" height="10.756" fill="#fffffa" opacity="0.34"></rect>
    </g>
    <polygon points="444.9 187.198 368.711 187.198 368.711 0 362.41 0 362.41 187.198 156.615 187.198 156.615 0 150.314 0 150.314 187.198 66.257 187.198 66.257 193.498 150.314 193.498 150.314 378.643 156.615 378.643 156.615 193.498 362.41 193.498 362.41 378.643 368.711 378.643 368.711 193.498 444.9 193.498 444.9 187.198" fill="#fff"></polygon>
    <rect id="c_3_c-5" data-name="c_3_c" x="51.173" y="378.186" width="408.811" height="12.592" fill="#f4f4f4"></rect>
    <rect id="c_3_c-6" data-name="c_3_c" x="51.173" y="378.186" width="408.811" height="12.592" fill="#292a2e" opacity="0.1"></rect>
    <rect id="c_3_c-7" data-name="c_3_c" x="459.984" y="378.186" width="5.902" height="12.592" fill="#292a2e" opacity="0.1"></rect>
    <rect id="c_3_c-8" data-name="c_3_c" x="459.984" y="378.186" width="5.902" height="12.592" fill="#292a2e" opacity="0.1"></rect>
    <g>
      <rect x="66.257" y="6.759" width="382.983" height="9.362" fill="#fff"></rect>
      <rect x="66.257" y="24.246" width="382.983" height="9.362" fill="#fff"></rect>
      <rect x="66.257" y="41.733" width="382.983" height="9.362" fill="#fff"></rect>
      <rect x="66.257" y="59.22" width="382.983" height="9.362" fill="#fff"></rect>
      <rect x="66.257" y="76.707" width="382.983" height="9.362" fill="#fff"></rect>
    </g>
    <rect x="402.823" width="5.739" height="96.629" fill="#fff"></rect>
    <circle cx="406.179" cy="102.62" r="7.885" fill="#fff"></circle>
  </g>
  <g>
    <g id="tail">
      <path d="M343.877,453.631a17.561,17.561,0,0,1-3.1-.276,18.809,18.809,0,0,1-13.3-9.712,18.332,18.332,0,0,1-.041-16.449,23.576,23.576,0,0,1,5.988-8.145,70.194,70.194,0,0,0-19.158-1.657,5.045,5.045,0,0,1-.751-10.063c.914-.069,20.145-1.4,33.789,6.4,10.489-.63,20.491,4.3,21,4.56a5.045,5.045,0,0,1-4.524,9.02,36.217,36.217,0,0,0-5.381-2.049,25.89,25.89,0,0,1,2.4,9.765,17.441,17.441,0,0,1-5.611,14.4A17.122,17.122,0,0,1,343.877,453.631Zm1.034-29.386q-.636.156-1.248.371a12.057,12.057,0,0,0-7.06,6.8c-1.282,2.782-1.341,5.326-.176,7.561a8.9,8.9,0,0,0,6.134,4.445,7.112,7.112,0,0,0,5.944-1.549,7.5,7.5,0,0,0,2.218-6.289,14.663,14.663,0,0,0-5.087-10.735Q345.282,424.54,344.911,424.245Z" fill="#010316"></path>
      <g opacity="0.6">
        <path d="M343.877,453.631a17.561,17.561,0,0,1-3.1-.276,18.809,18.809,0,0,1-13.3-9.712,18.332,18.332,0,0,1-.041-16.449,23.576,23.576,0,0,1,5.988-8.145,70.194,70.194,0,0,0-19.158-1.657,5.045,5.045,0,0,1-.751-10.063c.914-.069,20.145-1.4,33.789,6.4,10.489-.63,20.491,4.3,21,4.56a5.045,5.045,0,0,1-4.524,9.02,36.217,36.217,0,0,0-5.381-2.049,25.89,25.89,0,0,1,2.4,9.765,17.441,17.441,0,0,1-5.611,14.4A17.122,17.122,0,0,1,343.877,453.631Zm1.034-29.386q-.636.156-1.248.371a12.057,12.057,0,0,0-7.06,6.8c-1.282,2.782-1.341,5.326-.176,7.561a8.9,8.9,0,0,0,6.134,4.445,7.112,7.112,0,0,0,5.944-1.549,7.5,7.5,0,0,0,2.218-6.289,14.663,14.663,0,0,0-5.087-10.735Q345.282,424.54,344.911,424.245Z" fill="#fff"></path>
      </g>
      <g opacity="0.5">
        <path d="M332.018,434.353a5.049,5.049,0,0,1-4.58-7.159,21.931,21.931,0,0,1,12.914-12.11c12.543-4.4,27.332,2.9,27.956,3.21a5.045,5.045,0,0,1-4.524,9.02c-3.2-1.589-13.084-5.181-20.121-2.7a12.057,12.057,0,0,0-7.06,6.8A5.047,5.047,0,0,1,332.018,434.353Z" fill="#fff"></path>
      </g>
    </g>
    <path d="M128.189,360.56s-31.148-23.094-42.23-14.012c-10.031,8.22,1.586,41.027,1.586,41.027S114.321,389.992,128.189,360.56Z" fill="#010316"></path>
    <g opacity="0.2">
      <path d="M128.189,360.56s-31.148-23.094-42.23-14.012c-10.031,8.22,1.586,41.027,1.586,41.027S114.321,389.992,128.189,360.56Z" fill="#fff"></path>
    </g>
    <path d="M330.622,435.756c0-58.195-47.87-105.371-123.158-105.371-67.619,0-123.852,37.387-134.583,87.3H57.173v67.469H86.609c8.679,12.715,20.84,23.589,35.187,32.56v30.79a7.594,7.594,0,0,0,7.594,7.6h10.2c.234,0,.464-.016.694-.035.229.019.459.035.694.035h10.2a7.594,7.594,0,0,0,7.594-7.6V534.2a171.87,171.87,0,0,0,48.689,6.928,163.19,163.19,0,0,0,30.879-2.857v10.235a7.594,7.594,0,0,0,7.595,7.6h10.2c.234,0,.464-.016.694-.035.229.019.459.035.694.035h10.2a7.594,7.594,0,0,0,7.594-7.6V525.46C310.3,506.9,330.622,473.667,330.622,435.756Z" fill="#010316"></path>
    <path d="M330.622,435.756c0-58.195-47.87-105.371-123.158-105.371-67.619,0-123.852,37.387-134.583,87.3H57.173v67.469H86.609c8.679,12.715,20.84,23.589,35.187,32.56v30.79a7.594,7.594,0,0,0,7.594,7.6h10.2c.234,0,.464-.016.694-.035.229.019.459.035.694.035h10.2a7.594,7.594,0,0,0,7.594-7.6V534.2a171.87,171.87,0,0,0,48.689,6.928,163.19,163.19,0,0,0,30.879-2.857v10.235a7.594,7.594,0,0,0,7.595,7.6h10.2c.234,0,.464-.016.694-.035.229.019.459.035.694.035h10.2a7.594,7.594,0,0,0,7.594-7.6V525.46C310.3,506.9,330.622,473.667,330.622,435.756Z" fill="#fff" opacity="0.5"></path>
    <circle cx="96.215" cy="396.965" r="4.452" fill="#262626"></circle>
    <path d="M118.562,371.537a6.546,6.546,0,0,1-.881-8.38c5.927-8.709,19.5-26.585,28.849-22.928,8.556,3.346,10.608,24.777,11.1,34.436a6.081,6.081,0,0,1-4.236,6.29C146.53,382.82,132.586,384.234,118.562,371.537Z" fill="#010316"></path>
    <g opacity="0.2">
      <path d="M118.562,371.537a6.546,6.546,0,0,1-.881-8.38c5.927-8.709,19.5-26.585,28.849-22.928,8.556,3.346,10.608,24.777,11.1,34.436a6.081,6.081,0,0,1-4.236,6.29C146.53,382.82,132.586,384.234,118.562,371.537Z" fill="#fff"></path>
    </g>
    <rect x="168.437" y="339.282" width="76.756" height="9.719" rx="4.859" fill="#262626"></rect>
    <path d="M244.777,346.11A4.859,4.859,0,0,1,240.332,349H173.294a4.848,4.848,0,0,1-4.44-2.895,4.7,4.7,0,0,1,1.009-1.475,4.8,4.8,0,0,1,3.431-1.426h67.038A4.85,4.85,0,0,1,244.777,346.11Z" fill="#fff" opacity="0.2"></path>
    <ellipse cx="57.173" cy="451.42" rx="15.097" ry="33.735" fill="#010316"></ellipse>
    <g opacity="0.7">
      <ellipse cx="57.173" cy="451.42" rx="15.097" ry="33.735" fill="#fff"></ellipse>
    </g>
  </g>
  <path d="M797.129,557.1H1a1,1,0,0,1,0-2H797.129a1,1,0,0,1,0,2Z" fill="#292a2e"></path>
  <g>
    <g>
      <path d="M671.652,139.607s6.284,31.669,14.979,42.324c25.033,30.675,35.911,67.432,17.742,89.738s-150.3,39.774-166.176-4.03c-13.369-36.878,4.188-43.315,4.514-75.214.148-14.434,1.759-44.869,1.759-44.869" fill="#0a0a0a"></path>
      <path id="sk" d="M565.405,250.126c.23-.03,2.783,42.33,51.994,38.637,34.068-2.552,46.215-38.7,47-38.7-3.673-.78-9.858-1.916-11.49-2.786-5.364-2.883-12-5.882-13.731-16.3-1-6,.694-36.722.174-42.8l-52.294,11.672c.73,12.83,5.845,42.575-12.08,47.839C571.99,248.565,568.778,249.366,565.405,250.126Z" fill="#E98862"></path>
      <path id="sh" d="M586.32,235.538a37.911,37.911,0,0,0,1.573-8.116,86.576,86.576,0,0,0-.342-18.878,57.328,57.328,0,0,0,28.9-12.662c.971,3.586,6.312,19.256,4.833,22.664C618.491,224.988,605.357,235.538,586.32,235.538Z" fill="#0c0c0c" opacity="0.5"></path>
      <path d="M595.406,225.45c20.7-.681,46.092-12.3,48.03-40.241L645.185,160c1.937-27.94-11.167-51.607-37.473-53.431h0c-26.307-1.824-47.541,19.462-49.479,47.4l-.774,11.161C556.716,175.85,558.469,226.667,595.406,225.45Z" fill="#E98862"></path>
      <circle cx="564.777" cy="164.039" r="3.248" fill="#0c0c0c"></circle>
      <circle cx="598.114" cy="164.039" r="3.248" fill="#0c0c0c"></circle>
      <path d="M582.783,188.523a.435.435,0,0,1-.051,0,28.77,28.77,0,0,1-3.179-.42c-1.57-.308-3.648-.879-3.551-2.276.11-1.592,5.662-18.466,6.3-20.385a.666.666,0,1,1,1.264.417c-2.369,7.187-6.157,18.989-6.231,20.06.228.466,2.849,1.092,5.494,1.276a.666.666,0,0,1-.041,1.33Z" fill="#0c0c0c" opacity="0.5"></path>
      <path d="M587.99,199.87a27.187,27.187,0,0,1-12.234-3.062.665.665,0,1,1,.59-1.192c8.159,4.038,15.78,3.946,22.039-.267a4.1,4.1,0,0,1,.392-.247.665.665,0,0,1,.6,1.19c-.05.028-.132.084-.245.161A19.946,19.946,0,0,1,587.99,199.87Z" fill="#0c0c0c" opacity="0.5"></path>
      <path d="M666.786,166.157l-23.566-1.5c-18.305-5-27.167-34.617-27.167-34.617s-18.771,23.192-71.583,17.515c0,0,1.824-72.93,80.257-61.069,25.291,3.824,45.792,26.428,47.506,59.677C673.434,169.464,666.786,166.157,666.786,166.157Z" fill="#0a0a0a"></path>
      <path d="M641.212,193.608c7.994.555,15.068-7.549,15.623-15.543s-5.621-12.853-13.615-13.407l-4.491,5.071-4.39,23.4Z" fill="#E98862"></path>
      <path d="M575.125,153.5a13.617,13.617,0,0,0-6.923-1.568,12.027,12.027,0,0,0-3.549.662,14.549,14.549,0,0,0-3.27,1.6l-.033.02a.509.509,0,0,1-.548-.858,15.683,15.683,0,0,1,3.466-1.846,13.244,13.244,0,0,1,3.86-.854,15,15,0,0,1,7.761,1.516.764.764,0,1,1-.69,1.364l-.019-.01Z" fill="#0c0c0c"></path>
      <path d="M596.5,153.665a14.99,14.99,0,0,1,7.894-.465,13.219,13.219,0,0,1,3.711,1.362,15.663,15.663,0,0,1,3.188,2.293.509.509,0,0,1-.657.777l-.03-.025a14.581,14.581,0,0,0-3.027-2.026,12.011,12.011,0,0,0-3.428-1.131,13.617,13.617,0,0,0-7.071.629l-.055.021a.764.764,0,1,1-.549-1.426Z" fill="#0c0c0c"></path>
      <path d="M587.832,206.181a13.621,13.621,0,0,1-2.3-.186.665.665,0,0,1,.215-1.313c4.574.749,6.889-1.235,6.986-1.32a.665.665,0,0,1,.887.992A9.024,9.024,0,0,1,587.832,206.181Z" fill="#0c0c0c" opacity="1"></path>
      <path d="M616.278,126.8s-4.2,30.047,26.934,37.235" fill="none" stroke="#0c0c0c" stroke-miterlimit="10" stroke-width="0.5"></path>
      <ellipse cx="603.711" cy="183.542" rx="6.187" ry="4.538" transform="translate(-1.914 6.417) rotate(-0.608)" fill="#0c0c0c" opacity="0.1"></ellipse>
      <path d="M566.925,182.84c.019,2.5-2.729,4.563-6.146,4.6a8.5,8.5,0,0,1-1.759-.165c-.538-2.918-.916-5.743-1.17-8.371a7.78,7.78,0,0,1,2.838-.54C564.1,178.326,566.9,180.328,566.925,182.84Z" fill="#0c0c0c" opacity="0.1"></path>
    </g>
    <polygon points="729.989 501.812 738.894 556.1 516.795 556.1 525.097 501.484 729.989 501.812" fill="#262626"></polygon>
    <path id="b_1_b" d="M618.528,278.236c34.092-1.607,35.527-30.544,35.527-30.544s16.892,1.092,28.121,2.611c18.384,2.487,30.512,8.721,40.164,18.373,8.978,8.978,14.444,18.692,8.66,80.71-4.189,44.906-1.011,152.426-1.011,152.426L525.1,501.484S505.98,363.6,504.26,343.386c-3.282-38.589,3.713-71.211,11.724-79.223,16.472-16.471,44.828-16.471,58.989-16.469C575.2,247.694,572.1,280.424,618.528,278.236Z" fill="#010316"></path>
    <g>
      <path d="M272.533,227.134a5.419,5.419,0,0,0-7.6,2.037,5.626,5.626,0,0,0,2.192,7.361l6.238,3.827-25.23-3.041c-2.8-.388-6.481.928-6.709,4.1a5.414,5.414,0,0,0,3.442,5.8.353.353,0,0,0-.025.084.434.434,0,0,0,0,.063l-4.317-.6a5.425,5.425,0,0,0-6.155,5.7,5.552,5.552,0,0,0,4.87,5.061l1.837.254a.49.49,0,0,0,.082.161,5.416,5.416,0,0,0-4.911,4.936,5.626,5.626,0,0,0,4.962,5.863l4.515.625a.5.5,0,0,0-.266.372.487.487,0,0,0,.054.273,5.422,5.422,0,0,0-3.5,5.4,5.552,5.552,0,0,0,4.87,5.061l38.495,5.323a27.294,27.294,0,0,0,27.4-13.431l8.724-15.175Z" fill="#E98862"></path>
      <g opacity="0.2">
        <path d="M269.823,250.352a.5.5,0,0,1-.556.424l-23.989-2.924a.5.5,0,1,1,.121-.992l23.99,2.923a.5.5,0,0,1,.435.557Z" fill="#0c0c0c"></path>
      </g>
      <g opacity="0.2">
        <path d="M268.825,260.967a.5.5,0,0,1-.555.425L241.5,258.129a.5.5,0,0,1-.435-.557.518.518,0,0,1,.557-.436l26.772,3.263a.5.5,0,0,1,.436.557Z" fill="#0c0c0c"></path>
      </g>
      <g opacity="0.2">
        <path d="M267.811,272.471a.5.5,0,0,1-.555.425l-21.356-2.6a.5.5,0,0,1,.121-.993l21.356,2.6a.5.5,0,0,1,.436.557Z" fill="#0c0c0c"></path>
      </g>
    </g>
    <g>
      <g>
        <circle cx="209.747" cy="243.505" r="63.47" fill="#FFB507"></circle>
        <g opacity="0.1">
          <circle cx="209.747" cy="243.505" r="50.316" fill="#292a2e"></circle>
        </g>
      </g>
      <path d="M206.384,267.649l-.265-8.657c4.681.236,8.185-.413,11.035-2.377,3.415-2.354,3.941-4.806,2.051-7.548-4.272-6.2-20.1,4.874-27.6-6-4.818-6.991-3.044-14.781,4.592-20.043a18.148,18.148,0,0,1,15-2.794l-.934,8.133c-3.563-.483-6.143-.252-8.66,1.482-2.9,2-3.666,4.251-1.8,6.958,3.96,5.747,19.522-5.717,27.46,5.8,4.769,6.92,3.639,15.082-5.182,21.16A24.346,24.346,0,0,1,206.384,267.649Zm-17.6-48.225,5.879-4.052,5.981,8.679-5.879,4.051Zm28.947,42,5.878-4.051,6.563,9.523-5.879,4.051Z" fill="#fff"></path>
    </g>
    <path d="M275.605,241.849l-8.479-5.317a5.626,5.626,0,0,1-2.192-7.361,5.419,5.419,0,0,1,7.6-2.037" fill="#E98862"></path>
    <path d="M598.784,376.963l-26.372-21.854a5.42,5.42,0,0,0-7.811.943,5.626,5.626,0,0,0,1.131,7.6l5.635,4.67,26.522,13.736Z" fill="#E98862"></path>
    <g>
      <path d="M571.367,368.319l-24.547-6.574c-2.717-.779-6.548,0-7.22,3.108a5.418,5.418,0,0,0,2.585,6.23.353.353,0,0,0-.034.074c0,.021,0,.042,0,.063l-4.189-1.2a5.424,5.424,0,0,0-6.9,4.776,5.552,5.552,0,0,0,4.106,5.7l1.783.511a.527.527,0,0,0,.057.166,5.419,5.419,0,0,0-5.557,4.2,5.625,5.625,0,0,0,4.084,6.5l4.382,1.256a.5.5,0,0,0-.316.331.494.494,0,0,0,.014.278,5.42,5.42,0,0,0-4.221,4.848,5.552,5.552,0,0,0,4.106,5.7l37.357,10.706a27.291,27.291,0,0,0,29.021-9.427l10.781-13.79Z" fill="#E98862"></path>
      <g opacity="0.2">
        <path d="M566.45,377.711a.5.5,0,0,1-.61.342L542.5,371.77a.5.5,0,1,1,.26-.965l23.336,6.282a.5.5,0,0,1,.353.613Z" fill="#0c0c0c"></path>
      </g>
      <g opacity="0.2">
        <path d="M563.963,388.08a.5.5,0,0,1-.609.341L537.31,381.41a.5.5,0,0,1-.353-.613.52.52,0,0,1,.614-.353l26.043,7.011a.5.5,0,0,1,.353.613Z" fill="#0c0c0c"></path>
      </g>
      <g opacity="0.2">
        <path d="M561.335,399.325a.5.5,0,0,1-.61.342l-20.774-5.593a.5.5,0,1,1,.26-.966l20.774,5.593a.5.5,0,0,1,.353.613Z" fill="#0c0c0c"></path>
      </g>
    </g>
    <path d="M579.708,424.689l169.665,48.976a37.5,37.5,0,0,0,43.9-51.449l-57.844-137.8c-8.4-18.932-39.768-38.36-58.7-29.96s-18.258,41.441-9.859,60.372l34.781,72.465L595.871,362.837Z" fill="#010316"></path>
    <path d="M729.244,468.354a.517.517,0,0,1-.139-.019L579.569,425.17a.5.5,0,0,1-.345-.607l16.163-61.853a.5.5,0,0,1,.6-.361l104.773,24.222-34.331-71.527a.5.5,0,0,1,.9-.433l34.781,72.465a.5.5,0,0,1-.061.529.506.506,0,0,1-.5.175L596.232,363.433l-15.917,60.911,149.068,43.03a.5.5,0,0,1-.139.98Z" fill="#0c0c0c"></path>
    <path d="M719.124,391.591a.492.492,0,0,1-.107-.011l-17.465-3.8a.5.5,0,1,1,.213-.977l17.465,3.8a.5.5,0,0,1-.106.988Z" fill="#0c0c0c"></path>
    <line x1="502.356" y1="320.743" x2="500.128" y2="291.905" fill="none" stroke="#0c0c0c" stroke-linecap="round" stroke-linejoin="round"></line>
    <path d="M416.14,439.441a37.409,37.409,0,0,1-27.035-11.5l-126-130.991,54.052-51.994L418.293,350.1l99.074-87.147L566.9,319.264,440.9,430.1A37.378,37.378,0,0,1,416.14,439.441Z" fill="#010316"></path>
    <rect x="505.005" y="338.358" width="1" height="33.218" transform="matrix(0.992, -0.125, 0.125, 0.992, -40.356, 65.877)" fill="#0c0c0c"></rect>
  </g>
</svg>